<?xml version="1.0" encoding="UTF-8" standalone="no"?>
<!-- Created with Inkscape (http://www.inkscape.org/) -->

<svg
   width="16.312412mm"
   height="5.6005301mm"
   viewBox="0 0 16.312412 5.6005301"
   version="1.1"
   id="svg1"
   xml:space="preserve"
   sodipodi:docname="title.svg"
   inkscape:version="1.4.2 (ebf0e940d0, 2025-05-08)"
   xmlns:inkscape="http://www.inkscape.org/namespaces/inkscape"
   xmlns:sodipodi="http://sodipodi.sourceforge.net/DTD/sodipodi-0.dtd"
   xmlns="http://www.w3.org/2000/svg"
   xmlns:svg="http://www.w3.org/2000/svg"><sodipodi:namedview
     id="namedview1"
     pagecolor="#505050"
     bordercolor="#eeeeee"
     borderopacity="1"
     inkscape:showpageshadow="0"
     inkscape:pageopacity="0"
     inkscape:pagecheckerboard="0"
     inkscape:deskcolor="#505050"
     inkscape:document-units="mm"
     inkscape:zoom="28.806285"
     inkscape:cx="30.826606"
     inkscape:cy="10.587967"
     inkscape:window-width="1920"
     inkscape:window-height="1043"
     inkscape:window-x="0"
     inkscape:window-y="0"
     inkscape:window-maximized="1"
     inkscape:current-layer="svg1" /><defs
     id="defs1" /><g
     id="layer2"
     style="display:inline"
     transform="translate(-3.197555,-2.9999965)"><path
       style="font-size:21.3333px;font-family:'玄冬楷书';-inkscape-font-specification:'玄冬楷书';letter-spacing:0px;white-space:pre;stroke-width:0.377953"
       d="m 21.257875,27.593865 q -0.767999,0.064 -1.471998,0.341333 l -0.426666,0.191999 -0.02133,0.810666 q -0.02133,0.725332 0.08533,0.810665 0.106667,0.064 0.746666,-0.191999 0.575999,-0.192 1.045331,-0.256 0.32,-0.064 0.426666,-0.04267 0.128,0.02133 0.32,0.192 l 0.234666,0.256 -0.170666,0.341332 q -0.362666,0.682666 -0.874666,0.682666 -0.298666,0 -0.703998,0.213333 -0.426666,0.213333 -0.789333,0.277333 l -0.341332,0.064 v 0.618665 q 0,0.639999 0.02133,0.639999 0.02133,0 0.682666,-0.191999 0.725332,-0.170667 1.343997,-0.170667 0.384,0 0.597333,0.04267 0.128,0.04267 0.319999,0.256 l 0.256,0.298666 -0.277333,0.234666 q -0.511999,0.447999 0.149333,0.447999 0.234666,0 0.341333,-0.064 0.106666,-0.064 0.192,-0.319999 0.064,-0.149333 0.106666,-0.597332 0,-0.106667 -0.02133,-0.298667 0,-0.213333 -0.02133,-0.597332 0,-0.383999 0,-0.725332 -0.064,-2.13333 -0.128,-2.559996 -0.08533,-0.362666 -0.448,-0.533333 -0.383999,-0.213333 -1.173331,-0.170666 z m 0.234666,-2.111997 q -0.234666,-0.04267 -0.319999,0.02133 -0.064,0.064 -0.853332,0.149333 -0.831999,0.08533 -1.045332,0.298666 -0.213333,0.213333 -0.213333,0.277333 0,0.106666 -0.277333,0.469332 -0.319999,0.533333 -0.234666,0.533333 0.02133,-0.02133 0.04267,-0.02133 0.106666,-0.106667 1.045331,-0.32 1.386665,-0.405333 2.623996,-0.170666 l 0.298666,0.04267 -0.277333,-0.362666 q -0.298666,-0.362666 -0.298666,-0.447999 0,-0.08533 -0.170666,-0.256 -0.08533,-0.149333 -0.32,-0.213333 z m 1.258665,-5.695991 q -0.08533,-0.02133 -0.981332,0.02133 -0.789332,0.064 -1.493331,0.064 -0.703999,0.04267 -1.151998,0.277333 -0.533332,0.277333 -0.597332,0.298667 -0.08533,0.02133 -0.08533,0.213333 0,0.170666 0.064,0.255999 0.064,0.08533 0.959999,-0.192 0.895998,-0.298666 1.429331,-0.319999 0.725332,-0.08533 0.959998,0.064 0.213333,0.170666 -0.02133,0.618666 l -0.128,0.341332 -0.874665,0.04267 q -0.853332,0.064 -1.429331,0.277333 -0.426666,0.128 -0.511999,0.192 -0.106667,0.106666 -0.106667,0.298666 0,0.255999 0.106667,0.426666 0.08533,0.08533 0.213333,0.08533 0.04267,0 0.533332,-0.106667 0.661332,-0.213333 1.578664,-0.298666 0.959999,-0.106666 1.194665,0.064 0.213333,0.149333 0.298666,0.128 0.04267,-0.02133 0.192,-0.341333 0.341333,-0.746665 0.405333,-1.770664 0.02133,-0.469332 0,-0.554666 -0.02133,-0.064 -0.170667,-0.064 -0.277333,0 -0.383999,-0.02133 z m -0.106667,-4.693326 q 0.08533,-0.234666 0.106667,-0.298666 0.02133,-0.128 0.192,-0.128 0.106666,0 0.383999,0.106667 0.256,0.128 0.256,0.192 0,0.064 0.149333,0.064 0.106666,0 0.213333,0.384 0.106666,0.426666 0.04267,0.725332 l -0.04267,0.362666 h 0.554666 q 1.49333,0 1.450664,0.554666 0,0.256 -0.362666,0.511999 -0.234667,0.170667 -0.362666,0.170667 -0.128,0.02133 -0.831999,-0.04267 l -0.938665,-0.08533 -0.170667,0.213333 q -0.447999,0.575999 -0.511999,0.661332 l -0.341333,0.383999 0.895999,0.04267 q 1.471998,0.064 1.962664,0.490666 0.490665,0.447999 0.234666,1.365331 l -0.256,0.725332 q -0.08533,0.32 -0.277333,0.639999 -0.127999,0.213333 -0.405332,0.703999 -0.234667,0.447999 -0.448,0.469333 -0.213333,0.02133 -0.511999,0.426666 -0.405332,0.554666 -0.554666,0.191999 -0.04267,-0.191999 -0.149333,-0.191999 -0.149333,0 -0.170666,-0.192 -0.04267,-0.234666 -0.192,-0.298666 -0.170666,-0.04267 -0.255999,0.08533 -0.128,0.149333 -0.639999,0.149333 -0.597333,-0.04267 -1.258665,0.02133 -0.725332,0.08533 -0.725332,0.128 0,0.064 0.213333,0.213333 0.362666,0.128 0.106666,0.448 -0.149333,0.170666 -0.08533,0.341332 0.02133,0.149333 0.426666,0.08533 0.149333,-0.02133 0.298666,-0.04267 0.149333,-0.04267 0.234667,-0.064 0.106666,-0.04267 0.149333,-0.04267 0.149333,-0.02133 0.213333,-0.213333 0.170666,-0.426666 0.810665,-0.106666 0.362666,0.170666 1.130665,0.08533 0.789332,-0.064 2.730662,-0.128 1.898664,-0.02133 2.06933,-0.170666 0.128,-0.128 0.341333,-0.08533 0.149333,0.04267 0.853332,0.149333 0.682666,0.106666 0.767999,0.213333 0.106666,0.149333 0.170666,0.618665 l 0.064,0.533333 -0.490666,0.256 q -0.277333,0.149333 -0.469332,0.213333 -0.128,0.02133 -0.426666,-0.106667 -0.341333,-0.128 -1.023999,-0.256 -0.447999,-0.064 -0.981331,-0.170666 -0.661333,-0.170666 -1.941331,-0.213333 -1.258664,-0.04267 -1.386664,0.170666 -0.04267,0.02133 0.04267,0.149334 0.106667,0.127999 0.362667,0.362666 0.511999,0.511999 1.130664,0.981331 0.682666,0.554666 1.130665,0.789333 l 0.959999,0.575999 q 0.639999,0.426666 1.002665,0.554665 0.341333,0.128 0.703999,0.362667 0.469332,0.298666 0.597332,0.298666 0.149333,0 0.853332,0.319999 0.703999,0.341333 0.938665,0.362666 0.234667,0.04267 0.341333,0.213333 0.08533,0.128 0,0.341333 -0.149333,0.256 -0.405333,0.277333 -0.511999,0.128 -1.109331,0.426666 -0.767999,0.362666 -0.853332,0.511999 -0.106667,0.106667 -0.362666,-0.04267 -0.298666,-0.128 -0.959999,-0.448 -0.661332,-0.298666 -1.215998,-0.682665 -0.554666,-0.362666 -0.575999,-0.362666 -0.02133,0 -0.319999,-0.256 -0.298667,-0.256 -0.554666,-0.405333 l -0.277333,-0.213333 0.08533,1.813331 q 0.08533,2.687996 -0.298666,3.242661 -0.192,0.32 -0.213333,0.405333 -0.04267,0.170666 -0.234666,0.170666 -0.192,0 -0.384,0.213333 -0.298666,0.341333 -0.639999,0.298667 -0.341333,-0.02133 -0.554666,-0.426666 -0.08533,-0.106667 -0.490665,-0.512 -0.32,-0.319999 -0.490666,-0.405332 -0.128,-0.04267 -0.149333,-0.298666 -0.064,-0.213333 -0.106667,-0.32 -0.04267,-0.08533 -0.789332,-0.04267 -0.682666,0.02133 -1.066665,0.106667 l -0.362666,0.064 0.04267,0.469332 q 0.04267,0.490666 -0.191999,0.725333 -0.32,0.341332 -0.597333,0.127999 -0.277332,-0.234666 -0.447999,-0.895998 -0.064,-0.362666 0.064,-0.725332 0.106667,-0.32 0.149333,-2.815996 0.02133,-2.346663 -0.02133,-2.666662 -0.02133,-0.128 -0.106667,-0.128 -0.08533,0 -0.127999,0.128 -0.234667,0.682665 -1.685331,2.06933 -0.192,0.191999 -0.938665,0.703999 -0.725333,0.490665 -0.746666,0.490665 -0.064,0 -0.661332,0.362667 -0.618666,0.362666 -0.661332,0.362666 -0.170667,0 0,-0.256 0.04267,-0.08533 0.08533,-0.106666 0.191999,-0.192 0.511999,-0.597333 0.341333,-0.405333 1.322665,-1.450664 0.938665,-1.002665 0.938665,-1.066665 0,-0.08533 0.405332,-0.618666 0.405333,-0.575999 0.448,-0.682665 0,-0.04267 0.277333,-0.533333 0.213333,-0.362666 0.213333,-0.469333 -0.02133,-0.08533 -0.277333,-0.064 -0.234667,0.02133 -0.661333,0.127999 -0.341332,0.106667 -0.682665,0.256 -0.256,0.106666 -0.256,0.213333 0,0.08533 -0.170666,0.192 -0.213333,0.106666 -0.426666,0.106666 -0.192,0 -0.618666,-0.106666 -0.405333,-0.08533 -0.447999,-0.213333 -0.02133,-0.064 0.149333,-0.490666 0.170666,-0.384 0.341333,-0.384 0.128,0 0.874665,-0.234666 0.682666,-0.213333 1.514664,-0.383999 1.002665,-0.128 1.237332,-0.192 0.191999,-0.064 0.234666,-0.192 0.106667,-0.149333 0.298666,-0.554665 0.192,-0.426666 0.106667,-0.448 -0.08533,-0.02133 -0.149333,0.08533 -0.08533,0.128 -0.277333,-0.127999 -0.170667,-0.234667 -0.341333,-0.661333 -0.170666,-0.405332 -0.170666,-0.575999 -0.04267,-0.255999 -0.128,-0.575999 -0.149333,-0.319999 -0.234667,-0.938665 -0.191999,-1.365331 0.341333,-1.365331 0.234667,0 0.511999,-0.128 0.256,-0.106667 0.277333,-0.170666 0.02133,-0.04267 -0.02133,-0.405333 -0.04267,-0.362666 -0.128,-0.490666 -0.106666,-0.106666 -0.277333,0 -0.341332,0.213333 -0.618665,0.064 -0.277333,-0.149333 -0.277333,-0.597332 0,-0.32 0.064,-0.405333 0.064,-0.08533 0.383999,-0.213333 l 0.469333,-0.213333 -0.064,-0.447999 q -0.064,-0.512 -0.128,-0.725333 -0.064,-0.234666 0,-0.362666 0.064,-0.08533 0.02133,-0.191999 -0.064,-0.128 0.128,-0.149334 0.192,0 0.511999,0.128 0.298666,0.106667 0.426666,0.256 0.106667,0.192 0.170667,0.511999 0.127999,0.511999 0.191999,0.618666 0.064,0.128 0.213333,0.191999 0.192,0.08533 0.234667,0.234667 0.02133,0.149333 -0.170667,0.469332 -0.234666,0.384 -0.149333,0.426666 0.064,0.064 0.08533,0.512 0.04267,0.277332 0.106667,0.362666 0.02133,0.04267 0.213333,0.08533 0.234666,0.02133 0.767999,-0.04267 0.447999,-0.02133 0.554665,-0.255999 0.064,-0.213333 0.149333,-0.213333 0.08533,0 0.08533,-0.192 0,-0.170666 0.064,-0.170666 0.191999,0 0.618665,-1.002666 0.384,-0.938665 0.426666,-1.471997 0.04267,-0.469333 0.08533,-0.597333 z m 11.285316,19.00797 q -0.533333,0 -0.895999,-1.002665 -0.362666,-1.023998 -0.362666,-1.279998 0,-0.255999 0.170667,-0.703999 0.725332,-1.94133 1.962663,-4.223993 1.386665,-2.602662 2.26133,-4.01066 1.258665,-2.026664 2.837329,-4.479993 2.06933,-3.263995 2.154663,-3.413328 0.32,-0.533333 0.469333,-0.533333 0.277333,0 0.533332,0.874666 0.149333,0.383999 0.149333,0.597332 0,0.767999 -1.215998,2.751996 -1.386664,2.218663 -2.367996,3.690661 -1.130665,1.663997 -2.282663,3.541327 -1.173332,1.877331 -2.026664,3.882661 -0.874665,2.090663 -1.130664,3.797327 l -0.02133,0.277333 q 0,0.234666 -0.234666,0.234666 z m 9.493307,-15.509308 q 0,-0.256 0.234667,-0.426666 1.215998,-0.789333 3.434661,-1.343998 0.938665,-0.192 1.514664,-0.192 3.029329,0 4.373327,3.711994 0.469332,1.279998 0.469332,2.794662 0,2.218663 -1.173331,4.479993 -1.215998,2.32533 -2.410663,3.647994 -0.661332,0.725333 -1.450665,0.725333 -0.789332,0 -1.194664,-0.597333 -0.426666,-0.618665 -0.426666,-1.535997 0,-0.959999 0.341332,-2.06933 0.362667,-1.173332 1.066665,-1.450665 -0.106666,0.533333 -0.106666,1.023999 0,0.554665 0.383999,1.343998 0.341333,0.789332 0.874666,0.789332 0.511999,0 0.831998,-0.597333 1.322665,-2.410663 1.322665,-5.439991 0,-3.626661 -1.898664,-4.693326 -0.554666,-0.298666 -1.066665,-0.298666 -0.469332,0 -1.109331,0.298666 0.170666,0.981332 0.170666,2.303996 0,1.493331 -0.469333,4.45866 -0.490665,3.135995 -0.490665,4.671993 v 0.682665 q 0,0.575999 -0.256,0.725332 -0.277333,0.170667 -0.533333,0.170667 -0.789332,0 -1.109331,-2.922662 -0.128,-1.237332 -0.213333,-1.578665 0.04267,-0.02133 0.192,-0.02133 0.383999,0 0.895998,0.554666 v -0.554666 q -0.02133,-1.685331 0.447999,-6.14399 0.02133,-0.106667 0.02133,-0.639999 0,-0.511999 -0.08533,-0.938665 -0.106667,0.064 -0.597333,0.447999 -1.045331,0.853332 -1.471997,0.853332 -0.448,0 -0.448,-0.746666 l 0.02133,-0.661332 z m 12.159974,3.007995 q 0.490666,0 0.917332,0.362666 0.064,0.064 0.277333,0.213333 0.08533,0.064 0.192,0.170666 0.128,0.08533 0.149333,0.106667 0.341333,0.319999 0.341333,0.533332 0,0.256 -0.384,1.301332 -0.469332,1.322664 -0.810665,2.261329 -0.554666,1.493331 -0.554666,1.621331 0,0.149333 0.106667,0.149333 0.149333,0 1.279998,-2.026663 0.959998,-1.727998 1.68533,-3.178662 0.213333,-0.405333 0.597333,-0.405333 0.895998,0 0.895998,0.746666 0,0.383999 -0.554666,2.410663 -0.703998,2.623996 -0.703998,2.837329 0,0.234666 0.127999,0.234666 0.106667,0 0.469333,-1.130665 0.341333,-1.109332 0.511999,-1.109332 0.08533,0 0.213333,0.192 0.533333,1.087998 0.533333,2.047997 0,0.959998 -0.661333,2.154663 -0.277333,0.575999 -0.831998,0.575999 -0.32,0 -0.490666,-0.170666 -0.384,-0.426666 -0.511999,-0.661333 -0.405333,-0.490665 -0.661333,-1.834663 -0.191999,0.319999 -0.383999,0.789332 -0.490666,1.151998 -0.895999,1.642664 -0.255999,0.362666 -0.639999,0.362666 -0.383999,0 -0.874665,-0.554666 -0.703999,-0.959998 -0.703999,-2.154663 -0.02133,-1.151998 0.234666,-2.239997 0.192,-0.917331 0.746666,-2.538662 l 0.064,-0.256 q 0,-0.170666 -0.149333,-0.170666 l -0.490666,0.128 q -0.341333,0 -0.511999,-0.426666 -0.341333,-0.746666 -0.341333,-1.663998 0,-0.255999 0.213333,-0.255999 l 0.575999,0.127999 z m 10.069306,0.298666 q 0.533333,0 1.322665,0.426666 0.767999,0.447999 0.767999,1.023998 0,0.597333 -0.448,1.066665 -0.469332,0.469333 -1.045331,0.469333 -0.853332,0 -1.215998,-0.810665 -0.02133,-0.128 -0.128,-0.128 -0.106667,0 -0.703999,0.255999 -0.234666,0.106667 -0.533333,0.234667 -0.277333,0.127999 -0.298666,0.127999 -0.213333,0.08533 -0.213333,0.192 0,0.08533 0.298666,0.256 3.797328,1.023998 3.797328,3.135995 0,0.746665 -0.575999,1.535997 -0.618666,0.810666 -1.663998,1.322665 -1.066665,0.511999 -2.047997,0.511999 -0.981331,0 -1.365331,-0.533332 -0.405332,-0.533333 -0.405332,-1.535998 0,-1.023998 0.703998,-1.493331 0.938666,-0.618666 1.535998,-0.618666 0.149333,0 0.149333,0.064 0,0.08533 -0.319999,0.277333 -0.32,0.170667 -0.703999,0.554666 -0.384,0.362666 -0.384,0.575999 0,0.234666 0.512,0.234666 1.386664,0 2.687995,-0.767998 0.298667,-0.170667 0.298667,-0.362667 0,-0.170666 -0.448,-0.405332 -0.277333,-0.149333 -1.493331,-0.618666 -1.066665,-0.426666 -1.663997,-0.703999 -0.618666,-0.298666 -0.618666,-0.938665 0,-0.170666 0.106667,-0.554666 0.04267,-0.149333 0.08533,-0.319999 l 0.02133,-0.149333 q 0.08533,-0.725333 0.682666,-1.023999 0.533332,-0.277333 2.431996,-1.151998 0.298666,-0.149333 0.874665,-0.149333 z m 5.226668,3.989327 q 1.279997,-0.383999 2.325329,-1.791997 -1.237331,0.533332 -2.325329,1.791997 z m 3.69066,4.479993 q 0,0.192 0.04267,0.362666 0.04267,0.170666 0.04267,0.234666 0,0.362666 -0.448,0.511999 -0.511999,0.170667 -1.023998,0.170667 -0.554666,0 -1.151998,-0.661332 -0.618666,-0.639999 -2.175997,-2.943996 v 0.533333 q 0,0.981332 0.106667,1.578664 0.08533,0.490666 0.08533,0.661332 0,0.703999 -0.810666,0.703999 -0.426666,0 -0.575999,-0.341333 -0.191999,-0.405332 -0.341332,-1.023998 -0.170667,-0.746666 -0.170667,-1.002665 0,-0.234666 0.106667,-0.874665 0.08533,-0.533333 0.127999,-0.895999 0,-0.08533 0.02133,-0.234666 0.02133,-0.170667 0.02133,-0.405333 0.02133,-0.256 0.04267,-0.469333 0.277333,-4.565326 1.322664,-10.794649 -0.08533,-0.32 -0.08533,-0.618666 0,-0.256 0.213333,-0.256 0.213333,0 0.469333,0.298667 0.341332,0.341332 0.575999,1.066665 0.213333,0.661332 0.213333,1.130665 0,0.490665 -0.08533,1.023998 -0.106667,0.746665 -0.32,1.81333 -0.469333,2.623996 -0.639999,4.031994 l 0.298666,-0.298666 q 0.170667,-0.149333 0.32,-0.298666 l 0.106666,-0.106667 q 0.106667,-0.08533 0.192,-0.170666 0.213333,-0.170667 0.362666,-0.256 l 0.128,-0.08533 q 0.128,-0.064 0.213333,-0.128 0.255999,-0.149333 0.383999,-0.170666 0.384,-0.149333 0.810666,-0.149333 0.917331,0 1.407997,0.682665 0.469333,0.661333 0.469333,1.685331 0,0.682665 -0.192,1.023998 -0.213333,0.384 -0.298666,0.533333 -0.08533,0.149333 -0.362666,0.405332 l -0.383999,0.32 q -0.362667,0.277333 -1.066665,0.618666 -0.810666,0.383999 -0.895999,0.447999 -0.128,0.106666 -0.128,0.149333 0,0.08533 0.106667,0.192 1.087998,1.087998 2.346663,1.237331 l 0.234666,0.02133 q 0.426666,0 0.383999,0.746666 z"
       id="text1"
       transform="matrix(0.26458333,0,0,0.26458333,-0.28768645,-0.82390777)"
       aria-label="暮/Dusk" /></g></svg>
