<?xml version="1.0" encoding="UTF-8" standalone="no"?>
<!-- Created with Inkscape (http://www.inkscape.org/) -->

<svg
   width="148mm"
   height="105mm"
   viewBox="0 0 148 105"
   version="1.1"
   id="svg1"
   xml:space="preserve"
   inkscape:version="1.4.2 (ebf0e940d0, 2025-05-08)"
   sodipodi:docname="postcard.svg"
   inkscape:export-filename="05-memories/03-front.png"
   inkscape:export-xdpi="400"
   inkscape:export-ydpi="400"
   inkscape:export-batch-path="/home/yukari/misc/postcard"
   inkscape:export-batch-name="postcard"
   xmlns:inkscape="http://www.inkscape.org/namespaces/inkscape"
   xmlns:sodipodi="http://sodipodi.sourceforge.net/DTD/sodipodi-0.dtd"
   xmlns:xlink="http://www.w3.org/1999/xlink"
   xmlns="http://www.w3.org/2000/svg"
   xmlns:svg="http://www.w3.org/2000/svg"><sodipodi:namedview
     id="namedview1"
     pagecolor="#505050"
     bordercolor="#eeeeee"
     borderopacity="1"
     inkscape:showpageshadow="0"
     inkscape:pageopacity="0"
     inkscape:pagecheckerboard="0"
     inkscape:deskcolor="#505050"
     inkscape:document-units="mm"
     inkscape:zoom="1.0807417"
     inkscape:cx="157.29938"
     inkscape:cy="211.89151"
     inkscape:window-width="1920"
     inkscape:window-height="1043"
     inkscape:window-x="0"
     inkscape:window-y="0"
     inkscape:window-maximized="1"
     inkscape:current-layer="layer1"
     showguides="true"><sodipodi:guide
       position="3,105"
       orientation="-1,0"
       id="guide5"
       inkscape:locked="false"
       inkscape:label=""
       inkscape:color="rgb(165,29,45)" /><sodipodi:guide
       position="0,102"
       orientation="0,1"
       id="guide6"
       inkscape:locked="false"
       inkscape:label=""
       inkscape:color="rgb(165,29,45)" /><sodipodi:guide
       position="0,3"
       orientation="0,1"
       id="guide7"
       inkscape:locked="false"
       inkscape:label=""
       inkscape:color="rgb(165,29,45)" /><sodipodi:guide
       position="145,105"
       orientation="-1,0"
       id="guide8"
       inkscape:locked="false"
       inkscape:label=""
       inkscape:color="rgb(165,29,45)" /><sodipodi:guide
       position="74.000001,105"
       orientation="-1,0"
       id="guide10"
       inkscape:locked="false"
       inkscape:label=""
       inkscape:color="rgb(38,162,105)" /><sodipodi:guide
       position="78.000001,105"
       orientation="-1,0"
       id="guide11"
       inkscape:locked="false"
       inkscape:label=""
       inkscape:color="rgb(0,134,229)" /><sodipodi:guide
       position="141,105"
       orientation="-1,0"
       id="guide12"
       inkscape:locked="false"
       inkscape:label=""
       inkscape:color="rgb(0,134,229)" /><sodipodi:guide
       position="0,60.000001"
       orientation="0,1"
       id="guide13"
       inkscape:locked="false"
       inkscape:label=""
       inkscape:color="rgb(0,134,229)" /><sodipodi:guide
       position="0,50"
       orientation="0,1"
       id="guide15"
       inkscape:locked="false"
       inkscape:label=""
       inkscape:color="rgb(0,134,229)" /><sodipodi:guide
       position="0,40"
       orientation="0,1"
       id="guide16"
       inkscape:locked="false"
       inkscape:label=""
       inkscape:color="rgb(0,134,229)" /><sodipodi:guide
       position="0,30"
       orientation="0,1"
       id="guide17"
       inkscape:locked="false"
       inkscape:label=""
       inkscape:color="rgb(0,134,229)" /><sodipodi:guide
       position="0,20"
       orientation="0,1"
       id="guide18"
       inkscape:locked="false"
       inkscape:label=""
       inkscape:color="rgb(0,134,229)" /><sodipodi:guide
       position="0,10"
       orientation="0,1"
       id="guide19"
       inkscape:locked="false"
       inkscape:label=""
       inkscape:color="rgb(0,134,229)" /><sodipodi:guide
       position="110,105"
       orientation="-1,0"
       id="guide24"
       inkscape:locked="false"
       inkscape:label=""
       inkscape:color="rgb(0,134,229)" /><sodipodi:guide
       position="0,100"
       orientation="0,1"
       id="guide1"
       inkscape:locked="false"
       inkscape:label=""
       inkscape:color="rgb(97,53,131)" /><sodipodi:guide
       position="143,105"
       orientation="-1,0"
       id="guide2"
       inkscape:locked="false"
       inkscape:label=""
       inkscape:color="rgb(97,53,131)" /><sodipodi:guide
       position="0,95.000001"
       orientation="0,1"
       id="guide3"
       inkscape:locked="false"
       inkscape:label=""
       inkscape:color="rgb(99,69,44)" /></sodipodi:namedview><defs
     id="defs1"><rect
       x="140.80469"
       y="18.70544"
       width="50.360802"
       height="19.527658"
       id="rect9" /><rect
       x="11.338583"
       y="37.821989"
       width="214.29244"
       height="35.309008"
       id="rect7" /><rect
       x="11.338583"
       y="11.338586"
       width="185.75443"
       height="43.312575"
       id="rect6" /><rect
       x="0"
       y="339.40146"
       width="288.29185"
       height="26.685862"
       id="rect5" /><rect
       x="0"
       y="369.03839"
       width="59.106421"
       height="27.812"
       id="rect4" /><rect
       x="430.65642"
       y="315.79238"
       width="128.71366"
       height="81.058012"
       id="rect3" /><rect
       x="490.26516"
       y="369.03839"
       width="69.104917"
       height="27.812"
       id="rect2" /></defs><g
     inkscape:label="front"
     inkscape:groupmode="layer"
     id="layer1"
     style="display:none"><image
       width="148"
       height="111"
       preserveAspectRatio="xMidYMid"
       xlink:href="../../Downloads/Postcard-1-001/Postcard/IMG_8947.png"
       id="image1"
       x="0"
       y="-2.1166666"
       style="display:inline"
       inkscape:label="ImageRaw" /></g><g
     inkscape:groupmode="layer"
     id="layer2"
     inkscape:label="back"
     style="display:inline"><rect
       style="fill:#ffffff;stroke:#000000;stroke-width:0.1"
       id="rect1"
       width="147.99998"
       height="105"
       x="0"
       y="0"
       inkscape:label="Background" /><text
       xml:space="preserve"
       transform="matrix(0.26458333,0,0,0.26458333,2.8584066,7.0262302)"
       id="text5"
       style="font-size:8px;font-family:'Noto Sans CJK SC';-inkscape-font-specification:'Noto Sans CJK SC';text-align:start;letter-spacing:0px;writing-mode:lr-tb;direction:ltr;white-space:pre;shape-inside:url(#rect5);display:inline;fill:#7f7f7f;fill-opacity:1;stroke:none;stroke-width:0.377953"
       inkscape:label="Copyrights"><tspan
         x="0"
         y="347.44234"
         id="tspan2"><tspan
           style="font-family:Transport;-inkscape-font-specification:Transport;fill:#a8a8a8"
           id="tspan1">Photo &amp; Design: YukariChiba
</tspan></tspan><tspan
         x="0"
         y="358.2763"
         id="tspan4"><tspan
           style="font-family:Transport;-inkscape-font-specification:Transport;fill:#a8a8a8"
           id="tspan3">CC-BY-NC-SA / Source available at GitHub YukariChiba/postcards</tspan></tspan></text><text
       xml:space="preserve"
       transform="matrix(0.26458333,0,0,0.26458333,-0.28768645,-0.82390777)"
       id="text1"
       style="font-style:normal;font-variant:normal;font-weight:normal;font-stretch:normal;font-size:21.3333px;font-family:'玄冬楷书';-inkscape-font-specification:'玄冬楷书';text-align:start;letter-spacing:0px;writing-mode:lr-tb;direction:ltr;white-space:pre;shape-inside:url(#rect6);display:inline;fill:#a8a8a8;stroke-width:0.377953"
       inkscape:label="Set Name"><tspan
         x="11.337891"
         y="32.777857"
         id="tspan7"><tspan
           style="fill:#000000"
           id="tspan5">忆/</tspan><tspan
           style="fill:#000000"
           id="tspan6">Memories </tspan></tspan></text><text
       xml:space="preserve"
       transform="matrix(0.26458333,0,0,0.26458333,-0.12797443,-0.06268822)"
       id="text7"
       style="font-style:normal;font-variant:normal;font-weight:normal;font-stretch:normal;font-size:8px;font-family:'URW Gothic';-inkscape-font-specification:'URW Gothic';text-align:start;letter-spacing:0px;writing-mode:lr-tb;direction:ltr;white-space:pre;shape-inside:url(#rect7);display:inline;fill:#a8a8a8;stroke-width:0.377953"
       inkscape:label="Description"><tspan
         x="11.337891"
         y="45.028301"
         id="tspan9"><tspan
           style="font-family:Transport;-inkscape-font-specification:Transport"
           id="tspan8">South Bridge, Dujiangyan
</tspan></tspan><tspan
         x="11.337891"
         y="55.322338"
         id="tspan11"><tspan
           style="font-family:Transport;-inkscape-font-specification:Transport"
           id="tspan10">Chengdu, China
</tspan></tspan><tspan
         x="11.337891"
         y="65.616375"
         id="tspan13"><tspan
           style="font-family:Transport;-inkscape-font-specification:Transport"
           id="tspan12">(2018.07)</tspan></tspan></text><text
       xml:space="preserve"
       transform="matrix(0.26458333,0,0,0.26458333,-6.1208084,-0.47381935)"
       id="text9"
       style="font-style:normal;font-variant:normal;font-weight:normal;font-stretch:normal;font-size:13.3333px;font-family:Transport;-inkscape-font-specification:Transport;text-align:start;letter-spacing:0px;writing-mode:lr-tb;direction:ltr;white-space:pre;shape-inside:url(#rect9);display:inline;fill:#a8a8a8;fill-opacity:1;stroke-width:0.377953"
       inkscape:label="Set ID"><tspan
         x="140.80469"
         y="30.715107"
         id="tspan15"><tspan
           style="font-family:'URW Gothic';-inkscape-font-specification:'URW Gothic'"
           id="tspan14">05 - 03</tspan></tspan></text><g
       id="g10"
       transform="matrix(0.40648941,0,0,0.40648941,128.468,3.5618358)"
       inkscape:label="icon"
       style="display:inline;opacity:0.5;mix-blend-mode:normal"><path
         class="path"
         fill="#ffac33"
         d="m 11.983,3.562 c 4.543,-0.262 7.824,1.597 8.089,6.826 0.215,4.19 -5.184,6.79 -8.046,6.879 -2.462,0.077 -1.353,-1.852 0.61,-2.334 1.576,-0.387 4.124,-2.413 3.602,-4.44 C 15.641,8.173 11.923,7.809 9.887,10.785 9.089,11.952 6.333,11.658 5.791,10.351 4.833,8.042 7.002,3.849 11.983,3.562 Z"
         id="path1" /><path
         class="path"
         fill="#e1e8ed"
         d="m 35.75,21.384 c 0,-7.783 -4.495,-11.407 -14.519,-11.407 -1.087,0 -2.083,0.051 -3.018,0.137 C 16.853,7.691 13.368,7.286 10,7.286 c -4.304,0 -10,6.145 -10,10.839 0,4.608 3.606,4.866 7.811,4.874 0.233,3.245 1.226,5.647 3.249,7.26 0.277,1.15 1.534,5.741 3.94,5.741 1.353,0 2.099,-1.695 2.51,-3.417 1.128,0.136 2.359,0.209 3.722,0.209 1.733,0 3.288,-0.116 4.695,-0.335 C 26.017,34.114 26.458,36 28,36 c 2.317,0 4.273,-4.956 4.834,-6.521 1.969,-1.87 2.916,-4.545 2.916,-8.095 z"
         id="path2" /><circle
         class="path"
         fill="#292f33"
         cx="4.5"
         cy="15.786"
         r="1.5"
         id="circle2" /><path
         class="path"
         fill="#ffcc4d"
         d="m 17.562,4.339 c 4.312,1.455 5.74,4.148 4.034,9.099 -1.367,3.967 -7.345,4.361 -10.034,3.375 C 9.25,15.964 11,14.589 13,14.875 c 1.606,0.23 4.727,-0.698 5,-2.773 C 18.312,9.727 15,8 12,10 10.823,10.785 6.226,10.43 6.5,9.042 7.138,5.816 12.835,2.744 17.562,4.339 Z"
         id="path3" /><path
         fill="#dd2e44"
         class="nopath"
         transform="matrix(0.3,0,0,0.3,9,3.9)"
         d="m 19.281,6.392 c 0,0.405 -2.37,0.405 -2.37,0 C 16.911,5.492 2,-3.507 2,3.692 v 13.499 c 0,2.487 3.476,1.947 7.193,0.361 -1.429,3.525 -4.498,9.68 -7.05,13.934 -0.229,0.382 -0.178,0.868 0.124,1.194 0.303,0.325 0.783,0.415 1.181,0.215 l 5.258,-2.629 c 0.441,0.726 0.931,1.868 1.376,2.906 0.333,0.778 0.678,1.582 1.024,2.275 0.144,0.287 0.417,0.488 0.734,0.54 C 11.893,35.996 11.947,36 12,36 c 0.263,0 0.518,-0.104 0.707,-0.293 1.42,-1.419 3.429,-8.395 4.793,-14.093 1.364,5.698 3.373,12.674 4.793,14.093 C 22.481,35.896 22.737,36 23,36 c 0.053,0 0.106,-0.004 0.16,-0.013 0.317,-0.052 0.591,-0.253 0.734,-0.54 0.347,-0.693 0.691,-1.497 1.024,-2.275 0.445,-1.038 0.935,-2.181 1.376,-2.906 l 5.258,2.629 c 0.398,0.198 0.879,0.111 1.181,-0.215 0.303,-0.326 0.352,-0.812 0.124,-1.194 C 30.122,26.928 26.796,20.19 25.529,16.843 29.652,18.933 34,20.02 34,17.19 V 3.691 C 34,-3.507 19.281,5.492 19.281,6.392 Z"
         id="path4" /><path
         fill="#a0041e"
         class="nopath"
         transform="matrix(0.3,0,0,0.3,9,3.9)"
         d="m 2.114,17.869 c 1.177,3.199 11.468,-1.787 14.86,-5.179 0.31,-0.31 0.549,-0.602 0.758,-0.885 C 7.286,12.057 3.19,15.662 2.114,17.869 Z m 16.482,-6.068 c 0.212,0.285 0.453,0.578 0.765,0.89 3.6,3.6 14.639,8.999 14.639,4.5 V 16.982 C 32.329,14.783 27.963,11.96 18.596,11.801 Z"
         id="path5" /><path
         fill="#ea596e"
         class="nopath"
         transform="matrix(0.3,0,0,0.3,9,3.9)"
         d="M 22,11.4 C 22,13.388 20.389,15 18.401,15 H 16.599 C 14.611,15 13,13.388 13,11.4 V 7.6 C 13,5.612 14.611,4 16.599,4 h 1.802 C 20.389,4 22,5.612 22,7.6 Z"
         id="path6" /></g><g
       id="g1"
       inkscape:label="lines"
       style="display:inline"><path
         style="fill:none;fill-opacity:1;stroke:#7f7f7f;stroke-width:0.2;stroke-dasharray:0.799999, 1.6;stroke-dashoffset:0;stroke-opacity:1"
         d="M 77.999999,55 H 141"
         id="path20" /><path
         style="fill:none;fill-opacity:1;stroke:#7f7f7f;stroke-width:0.2;stroke-dasharray:0.799999, 1.6;stroke-dashoffset:0;stroke-opacity:1"
         d="M 77.999999,64.999999 141,64.855182"
         id="path21" /><path
         style="fill:none;fill-opacity:1;stroke:#7f7f7f;stroke-width:0.2;stroke-dasharray:0.799999, 1.6;stroke-dashoffset:0;stroke-opacity:1"
         d="M 77.999999,75 H 141"
         id="path22" /><path
         style="fill:none;fill-opacity:1;stroke:#7f7f7f;stroke-width:0.2;stroke-dasharray:0.799999, 1.6;stroke-dashoffset:0;stroke-opacity:1"
         d="M 141,84.999998 H 77.999999"
         id="path23" /><path
         style="fill:none;fill-opacity:1;stroke:#7f7f7f;stroke-width:0.2;stroke-dasharray:0.799999, 1.6;stroke-dashoffset:0;stroke-opacity:1"
         d="M 77.999999,94.999999 H 110"
         id="path24" /></g></g></svg>
