<?xml version="1.0" encoding="UTF-8" standalone="no"?>
<!-- Created with Inkscape (http://www.inkscape.org/) -->

<svg
   width="21.398035mm"
   height="6.4910984mm"
   viewBox="0 0 21.398035 6.4910984"
   version="1.1"
   id="svg1"
   xml:space="preserve"
   sodipodi:docname="title.svg"
   inkscape:version="1.4.2 (ebf0e940d0, 2025-05-08)"
   xmlns:inkscape="http://www.inkscape.org/namespaces/inkscape"
   xmlns:sodipodi="http://sodipodi.sourceforge.net/DTD/sodipodi-0.dtd"
   xmlns="http://www.w3.org/2000/svg"
   xmlns:svg="http://www.w3.org/2000/svg"><sodipodi:namedview
     id="namedview1"
     pagecolor="#505050"
     bordercolor="#eeeeee"
     borderopacity="1"
     inkscape:showpageshadow="0"
     inkscape:pageopacity="0"
     inkscape:pagecheckerboard="0"
     inkscape:deskcolor="#505050"
     inkscape:document-units="mm"
     inkscape:zoom="12.191735"
     inkscape:cx="40.437232"
     inkscape:cy="12.303417"
     inkscape:window-width="1920"
     inkscape:window-height="1043"
     inkscape:window-x="0"
     inkscape:window-y="0"
     inkscape:window-maximized="1"
     inkscape:current-layer="svg1" /><defs
     id="defs1"><rect
       x="11.338583"
       y="11.338586"
       width="185.75443"
       height="43.312576"
       id="rect6" /></defs><g
     id="layer2"
     style="display:inline"
     transform="translate(-3.0282176,-3.0000007)"><path
       d="m 18.527213,16.073883 q 0,-0.170666 0.04267,-0.213333 0.04267,-0.04267 0.170667,0 0.255999,0.064 0.661332,0.511999 l 0.533332,0.575999 q 0.149333,0.192 0,0.512 -0.234666,0.490666 -0.618665,0.597332 -0.192,0.02133 -0.384,0.213333 -0.170666,0.170666 -0.213333,0.170666 -0.106666,0 -0.575999,0.469333 -0.447999,0.447999 -0.810665,0.917332 -0.32,0.383999 -0.575999,0.490666 -0.064,0.02133 -0.511999,0.277333 -0.810666,0.533332 -1.002666,0.533332 -0.02133,0 0,-0.04267 0.04267,-0.064 0.170667,-0.234667 1.898664,-2.303996 2.389329,-3.306661 0.32,-0.618666 0.533333,-0.917332 0.192,-0.277333 0.192,-0.554666 z m 5.205325,1.258665 q 0.490666,-0.170667 1.002665,-0.405333 0.234666,-0.106666 0.405332,-0.192 0.128,-0.04267 0.810666,0.192 0.703999,0.234666 0.746665,0.298666 0.128,0.128 0.170667,0.831999 0.02133,0.511999 -0.08533,0.703999 -0.08533,0.149333 -0.533333,0.149333 -0.362666,0 -1.023998,0.149333 -0.767999,0.170666 -1.002665,0.298666 -0.256,0.106667 -0.341333,0.08533 -0.128,0 -0.490666,-0.213333 -1.151998,-0.639998 -1.258665,-0.938665 -0.04267,-0.149333 0.04267,-0.234666 0.08533,-0.08533 0.383999,-0.234666 0.597333,-0.298666 1.173332,-0.490666 z m -5.226659,2.837329 q 0.04267,0 0.511999,0.447999 0.341333,0.362666 0.362667,0.447999 0.02133,0.128 0,0.448 -0.02133,0.298666 -0.170667,0.511999 -0.149333,0.213333 -0.725332,0.789332 -0.917332,0.938665 -0.917332,1.130665 0,0.064 0.170667,0.191999 0.255999,0.106667 0.426666,0.618666 0.170666,0.554666 0.170666,1.066665 0,0.703999 -0.08533,0.810665 -0.106667,0.128 -0.128,2.38933 0,1.791997 -0.064,2.282663 -0.106666,0.490666 -0.405333,0.767999 -0.383999,0.341333 -0.938665,-0.341333 -0.213333,-0.213333 -0.255999,-0.405333 -0.04267,-0.255999 -0.02133,-0.853332 0,-0.661332 0.106667,-3.114661 0.08533,-2.218664 0.064,-2.239997 -0.02133,-0.02133 -0.767999,0.703999 -0.746666,0.746666 -0.810666,0.746666 -0.064,0 -0.08533,0.064 -0.08533,0.149334 -0.661332,0.533333 -0.639999,0.405333 -0.789332,0.426666 -0.362666,0.064 -0.511999,0.149333 -0.213333,0.106667 -0.362666,0.04267 -0.08533,-0.04267 -0.04267,-0.106667 0,-0.064 0.192,-0.298666 0.319999,-0.383999 0.661332,-0.703999 0.341333,-0.298666 0.725332,-0.767999 0.192,-0.213333 0.618666,-0.703999 1.471998,-1.62133 1.663997,-1.94133 0.746666,-1.023998 0.938665,-1.301331 0.917332,-1.237332 1.002666,-1.642664 0.064,-0.149333 0.127999,-0.149333 z m 11.178649,0.426666 q 0.448,0 0.661333,0.106666 0.277332,0.08533 0.661332,0.469333 l 0.447999,0.383999 -0.106666,0.362666 q -0.128,0.405333 -0.277333,0.575999 -0.08533,0.149333 -0.192,0.149333 -0.064,0.02133 -0.511999,-0.04267 -1.087998,-0.213333 -1.770664,-0.256 -0.639999,-0.02133 -1.749331,0.106667 l -1.365331,0.170666 q 0,0.02133 0.04267,0.064 0.064,0.064 0.128,0.08533 l 0.149333,0.149333 q 0.917332,0.703999 0.917332,1.087999 0,0.213333 -0.128,0.533332 -0.128,0.341333 -0.106667,3.647994 0,3.242662 -0.04267,3.711994 L 26.3352,32.86319 q -0.064,0.597332 -0.213333,0.746665 -0.426666,0.533333 -1.087998,0.725333 l -0.703999,0.234666 q -0.298666,0.08533 -0.447999,0.02133 -0.149333,-0.04267 -0.04267,-0.298666 0.064,-0.277333 -0.255999,-1.087998 -0.341333,-0.789332 -0.597333,-1.002665 -0.213333,-0.149333 -0.213333,-0.341333 0,-0.192 -0.319999,-0.341333 -0.405333,-0.234666 -0.703999,-0.831999 -0.128,-0.255999 0,-0.255999 0.04267,0 0.533332,0.319999 0.895999,0.575999 1.578665,0.575999 0.213333,-0.02133 0.362666,-0.213333 0.106666,-0.149333 0.149333,-0.831998 0,-0.064 0.04267,-3.413328 l 0.02133,-4.010661 -0.362666,0.064 q -0.362667,0.04267 -0.703999,0.128 -0.32,0.08533 -0.426666,0.02133 -0.106667,-0.064 -0.192,0.02133 -0.08533,0.08533 -0.554666,0.255999 -0.469332,0.170667 -0.725332,0.426666 -0.149333,0.170667 -0.256,0.213333 -0.106666,0.04267 -0.362666,0 -0.917332,-0.170666 -1.130665,-0.362666 -0.341332,-0.341333 0.106667,-0.639999 0.213333,-0.170666 1.194665,-0.533332 0.959998,-0.341333 1.62133,-0.511999 0.512,-0.128 1.151999,-0.298667 0.789332,-0.170666 1.066665,-0.213333 2.346663,-0.362666 2.687995,-0.362666 0.32,0 0.895999,-0.149333 0.597332,-0.170666 0.661332,-0.234666 0.08533,-0.08533 0.575999,-0.08533 z m 4.245327,13.503978 q -0.533333,0 -0.895999,-1.002665 -0.362666,-1.023998 -0.362666,-1.279998 0,-0.255999 0.170667,-0.703999 0.725332,-1.94133 1.962663,-4.223993 1.386665,-2.602662 2.26133,-4.01066 1.258665,-2.026664 2.837329,-4.479993 2.06933,-3.263995 2.154663,-3.413328 0.32,-0.533333 0.469333,-0.533333 0.277333,0 0.533332,0.874666 0.149333,0.383999 0.149333,0.597332 0,0.767999 -1.215998,2.751996 -1.386664,2.218663 -2.367996,3.690661 -1.130665,1.663997 -2.282663,3.541327 -1.173332,1.877331 -2.026664,3.882661 -0.874665,2.090663 -1.130664,3.797327 l -0.02133,0.277333 q 0,0.234666 -0.234666,0.234666 z M 53.04448,16.329883 q 0.533333,0 0.959999,0.255999 0.426666,0.298667 0.426666,0.703999 0,0.853332 -1.663997,1.237332 -0.895999,0.191999 -1.621331,0.170666 -0.511999,-0.02133 -1.514664,-0.02133 -0.853332,1.237331 -0.853332,2.602662 0,0.725332 0.319999,2.13333 0.597332,2.410663 0.597332,3.413328 0,1.023999 -0.08533,1.450665 -0.08533,0.447999 -0.191999,0.917331 -0.106667,0.448 -0.32,0.917332 -0.426666,1.002665 -1.343998,1.258665 -0.917332,0.256 -1.87733,0.256 -1.727997,0 -3.306662,-0.895999 -0.639999,-0.341333 -0.639999,-1.045332 0,-0.362666 0.064,-0.703999 0.106667,-0.810665 0.448,-0.938665 1.727997,-0.682665 3.391994,-0.682665 1.706664,0 1.706664,0.277333 0,0.191999 -0.575999,0.447999 l -0.767999,0.383999 q -0.511999,0.234667 -0.853332,0.639999 0.32,-0.064 0.405333,-0.08533 0.597332,-0.106666 0.874665,-0.106666 1.898664,-0.128 1.898664,-3.221329 0,-0.810665 -0.298666,-2.645329 -0.298666,-1.834664 -0.298666,-2.687996 0,-0.895998 0.234666,-1.727997 -1.514664,-0.064 -3.178662,-0.192 -1.173331,-0.08533 -1.237331,-0.874665 -0.04267,-0.810665 -0.04267,-0.874665 0,-0.447999 0.384,-0.447999 l 6.463989,0.106666 z m 0.981311,6.783989 q -0.234667,0 -0.426666,0.362666 -0.853332,1.983997 -0.853332,4.842659 0,0.831999 0.02133,1.066665 1.749331,-1.343998 1.749331,-4.309326 0,-1.962664 -0.490666,-1.962664 z m 0.767998,7.935987 q -0.554665,0.682666 -1.173331,0.682666 -0.661332,0 -1.045332,-0.319999 -1.386664,-1.151999 -1.386664,-3.946661 0,-1.962663 1.045332,-4.949325 0.106666,-0.234667 0.149333,-0.277333 0.08533,-0.04267 0.234666,-0.04267 0.149333,0 0.383999,-0.234666 0.213333,-0.213333 0.789332,-0.213333 0.554666,0 1.087999,0.405333 0.554665,0.426666 0.810665,1.087998 0.597332,1.578664 0.597332,3.221328 0,2.581329 -1.493331,4.586659 z m 3.79732,-9.450651 q 0.490666,0 0.917332,0.362666 0.064,0.064 0.277333,0.213333 0.08533,0.064 0.192,0.170666 0.127999,0.08533 0.149333,0.106667 0.341332,0.319999 0.341332,0.533332 0,0.256 -0.383999,1.301332 -0.469333,1.322664 -0.810665,2.261329 -0.554666,1.493331 -0.554666,1.621331 0,0.149333 0.106666,0.149333 0.149333,0 1.279998,-2.026663 0.959999,-1.727998 1.685331,-3.178662 0.213333,-0.405333 0.597332,-0.405333 0.895999,0 0.895999,0.746666 0,0.383999 -0.554666,2.410663 -0.703999,2.623996 -0.703999,2.837329 0,0.234666 0.128,0.234666 0.106667,0 0.469333,-1.130665 0.341332,-1.109332 0.511999,-1.109332 0.08533,0 0.213333,0.192 0.533332,1.087998 0.533332,2.047997 0,0.959998 -0.661332,2.154663 -0.277333,0.575999 -0.831999,0.575999 -0.319999,0 -0.490666,-0.170666 -0.383999,-0.426666 -0.511999,-0.661333 -0.405332,-0.490665 -0.661332,-1.834663 -0.192,0.319999 -0.383999,0.789332 -0.490666,1.151998 -0.895999,1.642664 -0.256,0.362666 -0.639999,0.362666 -0.383999,0 -0.874665,-0.554666 -0.703999,-0.959998 -0.703999,-2.154663 -0.02133,-1.151998 0.234666,-2.239997 0.192,-0.917331 0.746666,-2.538662 l 0.064,-0.256 q 0,-0.170666 -0.149334,-0.170666 l -0.490665,0.128 q -0.341333,0 -0.512,-0.426666 -0.341332,-0.746666 -0.341332,-1.663998 0,-0.255999 0.213333,-0.255999 l 0.575999,0.127999 z m 12.245299,5.973324 q 0,0.917332 -0.597333,1.791997 -0.234666,0.447999 -0.810665,1.173331 -0.575999,0.661333 -0.767999,0.831999 -0.554666,0.405333 -0.917332,0.405333 -0.319999,0 -0.533332,-0.04267 -0.170667,-0.02133 -0.32,-0.192 -0.213333,-0.170666 -0.255999,-0.213333 -0.106667,-0.064 -0.234667,-0.298666 -0.170666,-0.255999 -0.191999,-0.277333 0,-0.02133 -0.04267,-0.064 -0.02133,-0.04267 -0.064,-0.106666 -0.04267,-0.08533 -0.08533,-0.170666 -0.149333,-0.277333 -0.149333,-0.298667 -0.405333,-0.725332 -0.405333,-1.429331 0,-0.639999 0.128,-1.258664 0.08533,-0.469333 0.362666,-1.429332 0.256,-0.853332 0.32,-1.087998 -0.298667,0.384 -0.853332,0.874665 -0.234667,0.170667 -0.448,0.170667 -0.234666,0 -0.405332,-0.234666 -0.170667,-0.256 -0.426666,-0.959999 -0.256,-0.725332 -0.256,-1.023998 0,-0.277333 0.341333,-0.831999 0.319999,-0.490666 0.405333,-0.746665 0.106666,-0.384 0.319999,-0.384 0.106666,0 0.511999,0.213333 0.405333,0.213333 0.533333,0.874665 0.02133,0.256 0.191999,0.256 0.04267,0 0.384,-0.234666 0.298666,-0.234667 0.682665,-0.234667 0.362666,0 1.109332,0.682666 0.256,0.256 0.256,0.725332 0,0.405333 -0.04267,0.661332 -0.064,0.192 -0.128,0.256 -0.192,0.149333 -0.277333,0.405333 -0.106666,0.341333 -0.575999,2.00533 -0.490666,1.791997 -0.490666,1.919997 0,0.170666 0.128,0.170666 0.192,0 1.365331,-1.023998 0.575999,-0.490666 1.727998,-1.514664 0.341332,-0.234667 0.362666,-0.234667 0.149333,0 0.149333,0.874666 z m 6.975974,1.002665 q -0.08533,0.767999 -0.767998,2.047996 -0.661333,1.301332 -1.301332,1.301332 -0.277332,0 -0.533332,-0.298666 -1.258665,-1.514665 -1.258665,-2.879996 0,-0.469332 0.277333,-1.855997 0.384,-2.175997 0.384,-2.431996 0,-0.234666 -0.064,-0.234666 -0.064,0 -0.170667,0.170666 -0.554666,1.023998 -0.895998,2.218663 -0.362666,1.258665 -0.448,2.111997 -0.149333,1.279998 -0.234666,2.389329 0,0.533333 -0.277333,0.533333 -0.128,0 -0.426666,-0.234666 -1.151998,-0.981332 -1.151998,-2.687996 0,-0.810666 0.149333,-2.00533 0.08533,-0.938666 0.149333,-1.770664 0.213333,-2.965329 0.575999,-2.965329 0.192,0 0.277333,0.405333 0.08533,0.362666 0.08533,0.938665 0,0.405333 0.04267,0.959999 0.04267,0.426665 0.149333,0.426665 0.128,0 0.362666,-0.682665 0.234666,-0.682666 0.703999,-1.386665 0.447999,-0.682665 0.981332,-0.682665 0.511999,0 0.938665,0.234666 0.917332,0.469333 0.917332,1.962664 0,0.511999 -0.128,1.258664 -0.08533,0.533333 -0.213333,1.621331 l -0.106666,1.002665 q 0,0.128 0.08533,0.128 0.170666,0 0.874665,-0.853332 0.661332,-0.853332 0.938665,-0.853332 0.192,0 0.192,0.298666 0,0.959999 -0.106667,1.813331 z m 4.415989,-3.306662 q 0.661332,-0.810665 0.661332,-1.151998 0,-0.298666 -0.213333,-0.298666 -0.213333,0 -0.767998,0.554666 -0.597333,0.597332 -0.874666,0.959998 -0.04267,0.341333 -0.04267,0.384 0,0.383999 0.213333,0.383999 0.341332,0 1.023998,-0.831999 z m -0.831999,6.65599 q -1.386664,0 -1.983997,-0.703999 -0.618665,-0.682666 -1.109331,-2.154663 -0.170667,-0.575999 -0.170667,-1.194665 0,-0.639999 0.576,-1.685331 0.490665,-0.938665 1.237331,-1.834664 0.08533,-1.173331 0.533332,-1.173331 0.234667,0 0.32,0.277333 0.405333,-0.384 1.087998,-0.789332 0.639999,-0.384 1.151998,-0.384 0.533333,0 1.066665,0.597333 0.533333,0.597332 0.533333,1.215998 0,0.618665 -0.874665,1.727997 -1.642664,2.047997 -2.58133,2.047997 -0.682665,0 -1.066665,-1.130665 l -0.191999,0.341333 q -0.213333,0.341333 -0.256,0.469332 -0.064,0.106667 -0.213333,0.405333 -0.213333,0.447999 -0.213333,0.874665 0,0.874666 0.874665,0.874666 1.429331,0 2.474663,-0.618666 1.066665,-0.661332 2.00533,-1.834664 0.08533,0.831999 0.08533,1.429331 0,3.242662 -3.285328,3.242662 z M 85.7057,22.537873 h 0.32 q 0.234666,0 0.810665,-0.213333 0.618666,-0.192 0.981332,-0.192 0.362666,0 0.703999,0.277333 0.277333,0.256 0.597332,0.746666 0.277333,0.426666 0.277333,0.917332 0,0.511999 -0.917332,2.538662 -0.938665,2.111997 -0.938665,2.218663 0,0.149333 0.170667,0.149333 0.341332,0 1.429331,-1.237331 0.362666,-0.490666 0.533332,-0.746665 0.08533,-0.128 0.213333,-0.362667 0.149333,-0.234666 0.213333,-0.319999 0.064,-0.106667 0.426666,-0.810665 0.298666,-0.682666 0.341333,-0.746666 0.426666,-0.895998 0.703999,-1.621331 0.170666,-0.362666 0.511999,-0.362666 0.362666,0 0.639999,0.405333 0.298666,0.426666 0.298666,0.810665 0,0.767999 -1.109331,5.930658 -1.109332,5.183991 -1.215998,5.802657 -0.149334,0.639999 -0.234667,2.602663 0,0.661332 -0.447999,0.661332 -0.149333,0 -0.277333,-0.064 -1.557331,-0.639999 -1.557331,-2.730662 v -1.429331 q 0,-0.448 0.277333,-0.448 0.256,0 0.554666,0.362666 0.08533,0.106667 0.149333,0.192 0.08533,0.106667 0.128,0.170667 l 0.02133,0.04267 1.151998,-5.695991 q -0.938665,1.130665 -1.514664,1.535998 -0.533333,0.405332 -1.322665,0.405332 -0.789332,0 -1.258664,-0.725332 -0.469333,-0.725332 -0.469333,-1.642664 0,-1.898664 1.343998,-4.479993 -0.575999,0.149333 -0.959998,0.149333 -0.405333,0 -0.554666,-0.383999 -0.08533,-0.149333 -0.256,-0.746666 -0.192,-0.533332 -0.192,-0.682665 0,-0.32 0.426666,-0.277333 z"
       id="text1"
       style="font-size:21.3333px;font-family:'玄冬楷书';-inkscape-font-specification:'玄冬楷书';letter-spacing:0px;white-space:pre;stroke-width:0.377953"
       transform="matrix(0.26458333,0,0,0.26458333,-0.28768645,-0.82390777)"
       aria-label="行/Journey " /></g></svg>
