<?xml version="1.0" encoding="UTF-8" standalone="no"?>
<!-- Created with Inkscape (http://www.inkscape.org/) -->

<svg
   width="19.033026mm"
   height="5.4920335mm"
   viewBox="0 0 19.033026 5.4920335"
   version="1.1"
   id="svg1"
   xml:space="preserve"
   sodipodi:docname="title.svg"
   inkscape:version="1.4.2 (ebf0e940d0, 2025-05-08)"
   xmlns:inkscape="http://www.inkscape.org/namespaces/inkscape"
   xmlns:sodipodi="http://sodipodi.sourceforge.net/DTD/sodipodi-0.dtd"
   xmlns="http://www.w3.org/2000/svg"
   xmlns:svg="http://www.w3.org/2000/svg"><sodipodi:namedview
     id="namedview1"
     pagecolor="#505050"
     bordercolor="#eeeeee"
     borderopacity="1"
     inkscape:showpageshadow="0"
     inkscape:pageopacity="0"
     inkscape:pagecheckerboard="0"
     inkscape:deskcolor="#505050"
     inkscape:document-units="mm"
     inkscape:zoom="13.706658"
     inkscape:cx="36.040879"
     inkscape:cy="10.359929"
     inkscape:window-width="1920"
     inkscape:window-height="1043"
     inkscape:window-x="0"
     inkscape:window-y="0"
     inkscape:window-maximized="1"
     inkscape:current-layer="svg1" /><defs
     id="defs1"><rect
       x="11.338583"
       y="11.338586"
       width="185.75443"
       height="43.312576"
       id="rect6" /></defs><g
     id="layer2"
     style="display:inline"
     transform="translate(-3.4515544,-3.0000007)"><path
       d="m 20.19121,15.284551 q 0.106666,0 0.298666,0.08533 0.384,0.170667 0.767999,0.767999 0.319999,0.511999 0.064,0.853332 -0.128,0.192 -0.128,0.405333 0,0.234666 0.128,0.234666 0.298666,0 0.895998,-0.256 0.298667,-0.127999 0.874666,-0.08533 0.170666,0 0.511999,0.341333 0.298666,0.341333 0.405333,0.597332 0.106666,0.234667 0.064,0.362667 -0.02133,0.106666 -0.256,0.533332 -0.256,0.469333 -0.277333,0.597332 -0.04267,0.256 -0.04267,0.789332 0,0.789333 0.04267,1.045332 0.064,0.192 0.298666,0.469333 0.234667,0.277333 0.448,0.362666 0.426665,0.234666 2.474662,0.128 l 0.703999,-0.04267 0.256,-0.383999 q 0.277333,-0.362666 0.298666,-0.746666 0.128,-1.301331 0.319999,-1.301331 0.234667,0 0.448,0.831999 0.106666,0.469332 0.234666,0.661332 0.192,0.277333 0.469333,0.469332 0.213333,0.170667 0.298666,0.533333 0.08533,0.383999 0.064,0.725332 -0.106667,0.277333 -0.32,0.554666 -0.213333,0.319999 -0.426666,0.383999 -0.213333,0.02133 -0.661332,0.341333 l -0.426666,0.298666 -1.386665,-0.04267 q -1.386664,-0.04267 -2.026663,-0.256 -1.066665,-0.341333 -1.727997,-1.130665 -0.469333,-0.533332 -0.618666,-0.981332 -0.192,-0.447999 -0.256,-1.130664 -0.149333,-1.386665 0.149334,-2.474663 0.02133,-0.106667 0,-0.149333 -0.02133,-0.04267 -0.106667,-0.02133 -0.170666,0 -0.703999,0.128 -0.405333,0.08533 -0.490666,0.149333 -0.128,0.08533 -0.213333,0.32 -0.128,0.341333 -0.128,0.426666 0,0.170666 -0.341332,0.831998 -0.405333,0.789333 -0.575999,1.045332 -0.341333,0.511999 -0.426666,0.703999 -0.106667,0.192 -0.959999,1.087998 -0.895998,0.895999 -0.981332,0.895999 -0.08533,0 -0.810665,0.682665 -0.256,0.256 -1.023998,0.682666 -0.789333,0.469333 -0.938666,0.469333 -0.149333,0 -0.234666,-0.213333 -0.08533,-0.149333 -0.04267,-0.234667 0.04267,-0.08533 0.234667,-0.191999 0.405332,-0.32 1.322664,-1.301332 1.045332,-1.066665 1.471998,-1.62133 1.130665,-1.386665 1.130665,-1.493331 0,-0.064 0.128,-0.213333 0.106666,-0.149333 0.255999,-0.533333 0.149333,-0.447999 0.213333,-0.575999 0.08533,-0.149333 0,-0.128 -0.149333,0 -0.746665,0.341333 -0.661332,0.341333 -0.959999,0.277333 -0.341332,-0.064 -0.362666,-0.213333 -0.08533,-0.149333 -0.213333,-0.32 -0.149333,-0.170666 -0.106666,-0.319999 0.04267,-0.08533 0.447999,-0.32 0.362666,-0.213333 0.533333,-0.213333 0.106666,0 0.490665,-0.191999 0.213333,-0.106667 0.874666,-0.405333 l 0.533332,-0.213333 q 0.02133,0 0.170667,-0.981332 0.213333,-1.322664 0.405332,-1.62133 0.064,-0.064 0.192,-0.106667 z m 1.791997,8.895986 q 0.32,0.234666 0.469333,0.490666 0.106666,0.277333 0.106666,0.725332 0,0.341333 0.04267,0.469333 0.04267,0.08533 0.128,0.127999 0.170666,0.04267 1.343998,-0.064 0.831998,-0.064 2.666662,-0.106667 1.215998,-0.04267 1.343998,-0.02133 0.234666,0.02133 0.362666,0.149333 0.213333,0.213333 0.192,0.703999 -0.064,0.469332 -0.362666,0.767999 -0.106667,0.106666 -0.256,0.149333 -0.08533,0.02133 -0.639999,-0.02133 -0.682666,-0.02133 -1.173332,-0.127999 -0.341332,-0.04267 -1.429331,-0.08533 -1.023998,0 -1.62133,0.064 -0.298667,0.02133 -0.490666,0.08533 -0.106667,0.04267 -0.149333,0.234667 -0.064,0.255999 -0.04267,3.007995 0,2.303996 -0.064,2.773329 -0.064,0.533332 -0.405333,0.831999 -0.789332,0.725332 -1.301331,0.831998 -0.277333,0.04267 -0.703999,-0.04267 -0.490666,-0.106667 -0.490666,-0.256 0,-0.170666 -0.127999,-0.255999 -0.128,-0.106667 -0.128,-0.405333 0,-0.277333 -0.234667,-0.554666 -0.213333,-0.256 -0.853331,-0.618666 -0.448,-0.277333 -0.554666,-0.298666 -0.149333,-0.02133 -0.469333,0 -0.703999,0.106667 -1.045332,-0.298666 -0.106666,-0.149333 -0.106666,-0.661332 0,-0.490666 0.106666,-0.810666 0.128,-0.341333 0.639999,-1.066665 0.448,-0.682665 0.853332,-1.130665 0.234667,-0.255999 0.32,-0.319999 0.128,-0.04267 0.256,0.04267 0.170666,0.02133 0.191999,0.127999 0,0.02133 0.04267,0.618666 0.02133,0.639999 -0.192,1.087998 -0.213333,0.448 -0.213333,0.597333 0,0.149333 -0.149333,0.447999 -0.213333,0.362666 -0.106666,0.575999 0.08533,0.192 0.426666,0.192 0.04267,-0.02133 0.04267,0.02133 0.02133,0.02133 0,0.064 -0.02133,0.04267 0.02133,0.08533 0.04267,0.04267 0.170667,0.08533 0.490666,0.106667 1.023998,0.08533 0.703999,-0.02133 0.874665,-0.192 0.106667,-0.149333 0.149334,-1.045332 v -0.895998 q 0,-0.064 0.064,-0.938666 0.064,-0.895998 -0.02133,-1.322664 l -0.064,-0.511999 -0.575999,0.04267 q -1.770664,0.192 -2.538662,0.384 -0.32,0.08533 -0.746666,0.490666 -0.362666,0.298666 -0.554666,0.319999 -0.234666,0.064 -0.554666,-0.08533 -0.469332,-0.192 -0.618665,-0.725332 -0.064,-0.256 0.04267,-0.426666 0.08533,-0.149333 0.448,-0.277333 0.191999,-0.064 1.173331,-0.405333 0.639999,-0.213333 1.130665,-0.298666 0.533333,-0.08533 1.983997,-0.256 0.703999,-0.064 0.810665,-0.128 0.064,-0.04267 0.128,-0.703998 0.106667,-1.151999 0.426666,-1.514665 0.277333,-0.277333 1.002665,0.192 z m 1.642664,5.183992 q 0.469333,0.04267 1.215998,0.128 0.661333,0.08533 1.066665,0.234666 1.237332,0.405333 1.919997,1.002665 0.213333,0.149333 0.234667,0.213333 0.04267,0.128 0.04267,0.383999 0,0.426666 -0.277333,0.789332 -0.341333,0.576 -0.981332,0.618666 -0.597332,0.02133 -1.023998,-0.490666 -0.170666,-0.234666 -0.767999,-0.853332 -0.490666,-0.447999 -1.002665,-0.895998 -1.045331,-0.895999 -1.045331,-1.045332 0.08533,-0.08533 0.618665,-0.08533 z m 10.303984,4.735992 q -0.533333,0 -0.895999,-1.002665 -0.362666,-1.023998 -0.362666,-1.279998 0,-0.255999 0.170667,-0.703999 0.725332,-1.94133 1.962663,-4.223993 1.386665,-2.602662 2.26133,-4.01066 1.258665,-2.026664 2.837329,-4.479993 2.06933,-3.263995 2.154663,-3.413328 0.32,-0.533333 0.469333,-0.533333 0.277333,0 0.533332,0.874666 0.149333,0.383999 0.149333,0.597332 0,0.767999 -1.215998,2.751996 -1.386664,2.218663 -2.367996,3.690661 -1.130665,1.663997 -2.282663,3.541327 -1.173332,1.877331 -2.026664,3.882661 -0.874665,2.090663 -1.130664,3.797327 l -0.02133,0.277333 q 0,0.234666 -0.234666,0.234666 z m 13.482634,-8.08532 q -0.554665,-0.426666 -0.810665,-1.023999 -0.469333,-1.215998 -0.469333,-2.197329 0,-0.959999 0.128,-1.599998 -0.917332,1.855997 -0.917332,4.26666 0,2.410663 0.533333,4.13866 0.191999,0.639999 0.597332,0.639999 0.277333,0 0.511999,-0.383999 0.895999,-1.237332 1.642664,-3.221329 -0.661332,-0.149333 -1.215998,-0.618665 z m 2.495996,-7.893321 q -0.149333,-0.341333 -0.447999,-0.341333 -0.277333,0 -0.469332,0.234666 -0.170667,0.170667 -0.469333,0.661333 -1.215998,1.94133 -1.215998,4.757326 0,0.725332 0.405333,1.450664 0.383999,0.767999 1.023998,0.767999 0.064,0 0.277333,-0.04267 1.045332,-3.114662 1.045332,-6.783989 0,-0.384 -0.149334,-0.703999 z m 1.130665,7.807988 q -0.831998,3.114661 -2.026663,4.949325 -0.703999,1.045332 -1.642664,1.045332 -0.490666,0 -1.151998,-0.384 -1.791998,-1.109331 -2.06933,-2.517329 -0.298667,-1.493331 -0.298667,-2.986662 0,-4.053327 2.047997,-8.319987 0.256,-0.490666 0.533333,-0.490666 0.04267,0 1.002665,0.384 0.533332,-1.237332 2.175996,-1.237332 0.853332,0 1.258665,0.32 0.917332,0.725332 0.917332,3.669327 0,1.066665 -0.149333,2.282663 l 0.511999,-1.023998 q 0.170666,0.789332 0.170666,1.386665 0,1.74933 -1.279998,2.922662 z m 6.463991,-3.903994 q 0.661332,0 0.661332,0.853332 0,0.426666 -0.277333,0.639999 -0.703999,0.639999 -2.346663,0.853332 -0.213333,1.919997 -0.213333,3.370661 0,1.343998 0.192,1.343998 0.106666,0 0.895999,-0.682666 0.789332,-0.682665 0.853332,-0.682665 0.362666,0 0.362666,1.087998 0,1.151998 -0.405333,2.175997 -0.426666,1.066665 -1.151998,1.066665 -0.298666,0 -0.639999,-0.234667 -0.298666,-0.213333 -0.469333,-0.447999 -0.234666,-0.32 -0.447999,-0.661332 -0.08533,-0.128 -0.170667,-0.234667 -0.064,-0.127999 -0.127999,-0.191999 -0.064,-0.08533 -0.064,-0.106667 -0.597333,-0.810665 -0.618666,-1.578664 -0.064,-0.767999 -0.064,-1.81333 0,-1.045332 0.128,-2.26133 -0.682666,-0.04267 -1.087998,-0.469333 -0.469333,-0.469332 -0.682666,-1.087998 -0.255999,-0.597332 -0.255999,-0.703999 0,-0.277333 0.319999,-0.277333 l 2.047997,0.128 q 0.02133,-0.128 0.341333,-1.834664 0.362666,-1.74933 0.362666,-1.983997 l -0.04267,-0.405332 q 0,-0.341333 0.383999,-0.341333 0.405333,0 0.938666,0.383999 0.554665,0.384 0.554665,0.725332 0,0.170667 -0.149333,0.597333 -0.191999,0.661332 -0.511999,2.858662 z m 7.189304,9.066652 q -0.469333,0.597332 -0.810665,0.597332 -0.341333,0 -0.682666,-0.341332 -1.194665,-1.386665 -1.194665,-3.327995 0,-0.703999 0.149333,-1.322665 0.256,-1.173331 0.256,-1.514664 0,-0.341333 -0.04267,-0.341333 -0.106666,0 -1.68533,5.866658 -0.192,0.597332 -0.405333,0.597332 -0.554666,0 -1.365331,-1.983997 -0.426666,-0.959998 -0.426666,-2.26133 0,-1.493331 0.192,-2.517329 0.04267,-0.298666 0.08533,-0.575999 0.064,-0.298666 0.08533,-0.469333 0.04267,-0.170666 0.04267,-0.234666 0.02133,-0.170666 0.170666,-0.789332 0.02133,-0.170666 0.04267,-0.298666 0.04267,-0.149333 0.064,-0.256 0.04267,-0.128 0.04267,-0.149333 0.149333,-0.597332 0.341333,-1.514664 -0.533333,0 -0.533333,-0.32 0,-0.170666 0.128,-0.319999 1.194665,-1.87733 1.663998,-3.285328 0.106666,-0.362666 0.341332,-0.362666 0.362666,0 0.511999,0.661332 0.170667,0.725332 0.170667,1.151998 0,1.237331 -0.810666,1.983997 -0.959998,5.951991 -0.959998,6.250657 0,0.298666 0.08533,0.298666 0.106667,0 0.32,-0.405333 0.213333,-0.362666 0.703999,-1.514664 0.426666,-0.981332 0.810665,-1.642664 0.469333,-0.789332 1.194665,-0.789332 1.151998,0 1.151998,2.154663 0,1.727997 -0.810665,4.415993 -0.02133,0.064 -0.02133,0.170667 0,0.234666 0.234667,0.234666 0.213333,0 0.789332,-0.618666 0.554665,-0.618666 0.682665,-0.618666 0.106667,0 0.106667,0.810666 0,1.663997 -0.618666,2.581329 z m 5.077327,-5.823991 q 0.661332,-0.810665 0.661332,-1.151998 0,-0.298666 -0.213333,-0.298666 -0.213333,0 -0.767999,0.554666 -0.597332,0.597332 -0.874665,0.959998 -0.04267,0.341333 -0.04267,0.384 0,0.383999 0.213333,0.383999 0.341332,0 1.023998,-0.831999 z m -0.831999,6.65599 q -1.386664,0 -1.983997,-0.703999 -0.618665,-0.682666 -1.109331,-2.154663 -0.170667,-0.575999 -0.170667,-1.194665 0,-0.639999 0.575999,-1.685331 0.490666,-0.938665 1.237332,-1.834664 0.08533,-1.173331 0.533332,-1.173331 0.234667,0 0.32,0.277333 0.405333,-0.384 1.087998,-0.789332 0.639999,-0.384 1.151998,-0.384 0.533333,0 1.066665,0.597333 0.533333,0.597332 0.533333,1.215998 0,0.618665 -0.874665,1.727997 -1.642665,2.047997 -2.58133,2.047997 -0.682665,0 -1.066665,-1.130665 l -0.191999,0.341333 q -0.213333,0.341333 -0.256,0.469332 -0.064,0.106667 -0.213333,0.405333 -0.213333,0.447999 -0.213333,0.874665 0,0.874666 0.874665,0.874666 1.429331,0 2.474663,-0.618666 1.066665,-0.661332 2.00533,-1.834664 0.08533,0.831999 0.08533,1.429331 0,3.242662 -3.285328,3.242662 z m 10.666648,-4.351993 q 0,0.917332 -0.597333,1.791997 -0.234666,0.447999 -0.810665,1.173331 -0.575999,0.661333 -0.767999,0.831999 -0.554666,0.405333 -0.917332,0.405333 -0.319999,0 -0.533332,-0.04267 -0.170667,-0.02133 -0.32,-0.192 -0.213333,-0.170666 -0.255999,-0.213333 -0.106667,-0.064 -0.234667,-0.298666 -0.170666,-0.255999 -0.191999,-0.277333 0,-0.02133 -0.04267,-0.064 -0.02133,-0.04267 -0.064,-0.106666 -0.04267,-0.08533 -0.08533,-0.170666 -0.149333,-0.277333 -0.149333,-0.298667 -0.405333,-0.725332 -0.405333,-1.429331 0,-0.639999 0.128,-1.258664 0.08533,-0.469333 0.362666,-1.429332 0.256,-0.853332 0.32,-1.087998 -0.298667,0.384 -0.853332,0.874665 -0.234667,0.170667 -0.448,0.170667 -0.234666,0 -0.405332,-0.234666 -0.170667,-0.256 -0.426666,-0.959999 -0.256,-0.725332 -0.256,-1.023998 0,-0.277333 0.341333,-0.831999 0.319999,-0.490666 0.405333,-0.746665 0.106666,-0.384 0.319999,-0.384 0.106666,0 0.511999,0.213333 0.405333,0.213333 0.533333,0.874665 0.02133,0.256 0.191999,0.256 0.04267,0 0.384,-0.234666 0.298666,-0.234667 0.682665,-0.234667 0.362666,0 1.109332,0.682666 0.256,0.256 0.256,0.725332 0,0.405333 -0.04267,0.661332 -0.064,0.192 -0.128,0.256 -0.192,0.149333 -0.277333,0.405333 -0.106666,0.341333 -0.575999,2.00533 -0.490666,1.791997 -0.490666,1.919997 0,0.170666 0.128,0.170666 0.192,0 1.365331,-1.023998 0.575999,-0.490666 1.727998,-1.514664 0.341332,-0.234667 0.362666,-0.234667 0.149333,0 0.149333,0.874666 z m 4.373312,-5.674658 q 0.533332,0 1.322664,0.426666 0.767999,0.447999 0.767999,1.023998 0,0.597333 -0.447999,1.066665 -0.469333,0.469333 -1.045332,0.469333 -0.853332,0 -1.215998,-0.810665 -0.02133,-0.128 -0.128,-0.128 -0.106666,0 -0.703998,0.255999 -0.234667,0.106667 -0.533333,0.234667 -0.277333,0.127999 -0.298666,0.127999 -0.213333,0.08533 -0.213333,0.192 0,0.08533 0.298666,0.256 3.797327,1.023998 3.797327,3.135995 0,0.746665 -0.575999,1.535997 -0.618665,0.810666 -1.663997,1.322665 -1.066665,0.511999 -2.047997,0.511999 -0.981332,0 -1.365331,-0.533332 -0.405333,-0.533333 -0.405333,-1.535998 0,-1.023998 0.703999,-1.493331 0.938665,-0.618666 1.535998,-0.618666 0.149333,0 0.149333,0.064 0,0.08533 -0.32,0.277333 -0.319999,0.170667 -0.703999,0.554666 -0.383999,0.362666 -0.383999,0.575999 0,0.234666 0.511999,0.234666 1.386665,0 2.687996,-0.767998 0.298666,-0.170667 0.298666,-0.362667 0,-0.170666 -0.447999,-0.405332 -0.277333,-0.149333 -1.493331,-0.618666 -1.066665,-0.426666 -1.663997,-0.703999 -0.618666,-0.298666 -0.618666,-0.938665 0,-0.170666 0.106666,-0.554666 0.04267,-0.149333 0.08533,-0.319999 l 0.02133,-0.149333 q 0.08533,-0.725333 0.682665,-1.023999 0.533333,-0.277333 2.431997,-1.151998 0.298666,-0.149333 0.874665,-0.149333 z"
       id="text1"
       style="font-size:21.3333px;font-family:'玄冬楷书';-inkscape-font-specification:'玄冬楷书';letter-spacing:0px;white-space:pre;stroke-width:0.377953"
       transform="matrix(0.26458333,0,0,0.26458333,-0.28768645,-0.82390777)"
       aria-label="杂/Others " /></g></svg>
