<?xml version="1.0" encoding="UTF-8" standalone="no"?>
<!-- Created with Inkscape (http://www.inkscape.org/) -->

<svg
   width="20.827959mm"
   height="5.198525mm"
   viewBox="0 0 20.827959 5.198525"
   version="1.1"
   id="svg1"
   xml:space="preserve"
   sodipodi:docname="title.svg"
   inkscape:version="1.4.2 (ebf0e940d0, 2025-05-08)"
   xmlns:inkscape="http://www.inkscape.org/namespaces/inkscape"
   xmlns:sodipodi="http://sodipodi.sourceforge.net/DTD/sodipodi-0.dtd"
   xmlns="http://www.w3.org/2000/svg"
   xmlns:svg="http://www.w3.org/2000/svg"><sodipodi:namedview
     id="namedview1"
     pagecolor="#505050"
     bordercolor="#eeeeee"
     borderopacity="1"
     inkscape:showpageshadow="0"
     inkscape:pageopacity="0"
     inkscape:pagecheckerboard="0"
     inkscape:deskcolor="#505050"
     inkscape:document-units="mm"
     inkscape:zoom="12.525431"
     inkscape:cx="39.359923"
     inkscape:cy="9.8200213"
     inkscape:window-width="1920"
     inkscape:window-height="1043"
     inkscape:window-x="0"
     inkscape:window-y="0"
     inkscape:window-maximized="1"
     inkscape:current-layer="svg1" /><defs
     id="defs1" /><g
     id="layer2"
     style="display:inline"
     transform="translate(-2.9999999,-2.9999964)"><path
       style="font-size:21.3333px;font-family:'玄冬楷书';-inkscape-font-specification:'玄冬楷书';letter-spacing:0px;white-space:pre;stroke-width:0.377953"
       d="m 17.481881,17.055215 q 0.213333,0.08533 0.511999,0.618666 0.170667,0.319999 0.213333,0.575999 0,0.255999 -0.149333,1.066665 -0.128,0.639999 -0.08533,0.746665 0.02133,0.08533 0.597332,0.149333 0.575999,0.02133 0.767999,0.192 0.213333,0.170666 0.170666,0.554666 -0.04267,0.383999 -0.319999,0.533332 -0.298666,0.192 -0.810665,0.149333 h -0.256 q -0.128,0 -0.149333,0.02133 l -0.04267,0.04267 q -0.02133,0.02133 -0.02133,0.064 0.213333,0.575999 0.213333,0.767999 0,0.213333 -0.213333,0.661332 -0.469333,0.853332 -0.426666,1.109332 0.04267,0.234666 0.639999,0.298666 0.682665,0.064 0.895998,0.128 0.192,0.064 0.448,0.234666 0.191999,0.149333 0.213333,0.256 0.04267,0.170666 0.04267,0.405332 0,0.405333 -0.127999,0.448 -0.128,0.04267 -0.128,0.213333 0,0.277333 -0.362666,0.383999 -0.426666,0.106667 -0.810666,-0.04267 -0.319999,-0.149333 -0.597332,-0.341332 -0.256,-0.170667 -0.277333,-0.149333 -0.08533,0.08533 -0.106666,2.175996 0,0.362666 -0.08533,3.413328 0,0.981332 -0.106666,1.258665 -0.128,0.255999 -0.554666,0.255999 -0.234666,0 -0.319999,-0.064 -0.064,-0.02133 -0.234667,-0.298666 -0.128,-0.255999 -0.170666,-0.554666 -0.02133,-0.255999 0,-1.279998 0.04267,-1.471997 0.128,-2.00533 0.02133,-0.319999 0.064,-1.045331 v -1.237332 q -0.02133,-0.533332 -0.064,-0.533332 -0.106667,0 -1.621331,1.578664 -1.514664,1.578664 -1.706664,1.578664 -0.213333,0 -0.213333,-0.04267 0,-0.02133 0.383999,-0.703999 0.426666,-0.703999 0.469333,-0.767999 0.128,-0.08533 0.128,-0.192 0,-0.08533 0.405332,-0.575999 0.384,-0.511999 0.384,-0.575999 0,-0.04267 0.277333,-0.383999 0.255999,-0.32 0.255999,-0.384 0,-0.064 0.213333,-0.341333 0.192,-0.277333 0.639999,-1.194664 0.362666,-0.746666 0.618666,-1.365332 0.08533,-0.277332 0.128,-0.661332 0.04267,-0.341333 0,-0.383999 -0.149333,-0.08533 -0.554666,0.106666 -0.426666,0.234667 -0.511999,0.426666 -0.149333,0.256 -0.384,0.426666 -0.149333,0.08533 -0.234666,0.08533 -0.08533,0 -0.234666,-0.08533 -0.192,-0.128 -0.426666,-0.511999 -0.213333,-0.298666 -0.213333,-0.533332 0,-0.256 0.319999,-0.405333 0.32,-0.149333 0.959999,-0.362666 0.767999,-0.234667 1.066665,-0.298666 0.298666,-0.04267 0.319999,-0.128 0,-0.02133 0.04267,-1.002665 0.04267,-1.813331 0.511999,-2.282663 0.256,-0.298667 0.490666,-0.192 z m 7.295988,11.157316 q -0.04267,-0.04267 -0.170666,-0.04267 -0.767999,0.064 -0.895999,0.32 -0.149333,0.255999 -0.213333,0.319999 -0.255999,0.256 0.277333,0.490666 0.362666,0.170666 0.426666,0.106666 0.192,-0.106666 0.469333,-0.917331 0.106666,-0.256 0.106666,-0.277333 z M 23.049872,17.247215 q 0.234666,0.064 0.575999,0.106666 0.895999,0.149333 1.130665,0.490666 0.064,0.149333 0.04267,0.405333 -0.04267,0.298666 -0.149333,0.447999 -0.128,0.234666 -0.106667,1.578664 0,0.831999 -0.04267,1.557331 -0.064,0.554666 -0.277333,1.194665 -0.08533,0.469332 -0.298667,0.533332 -0.191999,0.064 -0.341332,-0.02133 -0.170667,-0.064 -0.213333,-0.234666 0,-0.04267 -0.149333,-0.469333 -0.106667,-0.277333 0.02133,-1.002665 0.08533,-0.618666 0.02133,-2.19733 -0.08533,-1.493331 -0.213333,-1.557331 -0.170666,-0.106666 -0.575999,-0.106666 -0.447999,0.04267 -0.575999,0.128 -0.128,0.08533 -0.298666,1.770663 -0.234667,2.773329 0.064,2.602663 0.127999,-0.106666 0.383999,-2.111997 0.064,-0.383999 0.383999,-0.405332 0.32,-0.04267 0.426666,0.362666 0.04267,0.213333 -0.064,0.895998 -0.08533,0.533333 -0.277333,1.215998 -0.149333,0.533333 -0.149333,0.639999 0,0.106667 0.405332,0.256 0.362666,0.170666 0.853332,0.554666 0.384,0.298666 0.405333,0.319999 0.064,0.08533 0.106666,0.341333 0.04267,0.341333 0.213333,0.362666 0.192,0.04267 0.405333,0.256 0.213333,0.213333 0.277333,0.08533 0.383999,-0.618666 0.383999,-0.810665 0,-0.08533 0.149333,-0.256 0.149334,-0.149333 0.02133,-0.256 -0.149333,-0.106666 -0.298666,-0.469332 -0.170667,-0.426666 -0.08533,-1.237332 0.08533,-0.767998 0.08533,-2.453329 0.04267,-1.365331 0.106666,-1.578664 0.064,-0.256 0.490666,-0.511999 0.618666,-0.405333 2.13333,-0.213333 0.426666,0.02133 0.618666,0.106666 0.170666,0.08533 0.362666,0.298666 0.298666,0.298667 0.234666,0.405333 -0.064,0.064 -0.106666,1.450664 -0.04267,3.413328 -0.256,3.903994 -0.128,0.234667 -0.32,0.234667 -0.511999,0 -0.746665,-0.938666 -0.213333,-0.895998 -0.149333,-2.986662 l 0.08533,-1.578664 -0.213333,-0.106666 q -0.234666,-0.106667 -0.725332,-0.128 -0.533333,0 -0.682666,0.192 -0.191999,0.191999 -0.08533,0.319999 0.106667,0.192 0.08533,2.00533 -0.04267,1.855997 0,2.218663 l 0.04267,0.362667 0.170666,-0.533333 q 0.170667,-0.533332 0.106667,-1.279998 -0.064,-0.703999 -0.02133,-0.895999 0.08533,-0.213333 0.32,-0.149333 0.234666,0.106667 0.447999,0.341333 0.213333,0.277333 0.234667,0.384 0.02133,0.064 -0.02133,0.469332 -0.064,0.789332 -0.362666,1.898664 -0.04267,0.170666 -0.02133,0.192 0,0.064 0.106666,0.02133 0.170667,-0.106667 0.767999,0.255999 0.746666,0.405333 1.045332,0.767999 0.277333,0.384 0.02133,0.682666 -0.170666,0.191999 -0.490666,0.128 -0.341333,-0.02133 -0.831998,-0.554666 -0.490666,-0.490666 -0.554666,-0.490666 -0.08533,0 -0.08533,-0.192 0,-0.191999 -0.08533,-0.213333 -0.106666,0 -0.170666,0.192 -0.064,0.192 -0.256,0.383999 -0.917332,0.810666 -1.002665,0.810666 -0.08533,0 -0.191999,0.170666 -0.128,0.192 -0.128,0.341333 0,0.277333 -0.213333,0.554666 l -0.256,0.319999 h 0.32 q 0.277333,0 0.490666,-0.192 0.362666,-0.383999 0.831998,0.02133 0.213333,0.191999 4.58666,0.277333 0.639999,0 0.639999,0.831998 0,0.405333 -0.064,0.533333 -0.064,0.149333 -0.405333,0.234666 -0.554666,0.256 -1.151998,0.04267 -0.32,-0.106667 -0.895999,-0.149333 -0.511999,0 -1.002665,-0.106667 -0.831998,-0.149333 -1.343998,-0.02133 -0.170666,0.064 -0.341332,0.511999 -0.170667,0.469333 -0.256,0.554666 0,0.02133 -0.02133,0.064 -0.02133,0.04267 -0.064,0.08533 -0.02133,0.04267 -0.064,0.128 -0.02133,0.064 -0.064,0.149333 -0.192,0.341333 -0.192,0.362666 0,0.04267 0.597333,0.319999 0.554665,0.277333 1.429331,0.810666 0.703999,0.490666 0.767999,0.661332 0.127999,0.234666 0.064,0.639999 -0.064,0.447999 -0.234666,0.575999 -0.149333,0.149333 -0.554666,0.213333 -0.362666,0.064 -0.618665,0.02133 -0.213333,-0.064 -0.746666,-0.554665 -0.661332,-0.597333 -0.874665,-0.789332 -0.298666,-0.256 -0.789332,-0.597333 -0.128,-0.064 -0.384,0.064 -1.727997,0.789332 -2.261329,1.002665 -1.493331,0.533333 -1.493331,0.405333 0,-0.08533 0.170666,-0.256 0.256,-0.255999 0.917332,-0.767999 1.407998,-1.045331 1.407998,-1.215998 0,-0.064 -0.256,-0.064 -0.170666,0 -0.426666,-0.106666 -0.149333,-0.064 -0.192,-0.192 -0.064,-0.170666 -0.106666,-0.447999 -0.02133,-0.575999 0.064,-0.703999 0.08533,-0.08533 0.04267,-0.170666 -0.04267,-0.04267 0.08533,-0.277333 0.127999,-0.170667 0.127999,-0.192 -0.02133,-0.02133 -0.170666,-0.02133 -0.234666,0 -1.066665,0.213333 -0.895999,0.234666 -1.173331,0.511999 -0.362667,0.298666 -0.767999,0.256 -0.170667,-0.02133 -0.405333,-0.192 -0.192,-0.149333 -0.298666,-0.341333 -0.128,-0.213333 0.04267,-0.511999 0.170666,-0.256 0.405332,-0.362666 1.066665,-0.426666 3.434661,-0.853332 0.490666,-0.08533 0.703999,-0.170667 0.149333,-0.064 0.192,-0.191999 0.02133,-0.04267 0.08533,-0.213333 0.08533,-0.192 0.128,-0.298666 0.469333,-1.087999 0.383999,-1.173332 -0.04267,-0.04267 -0.106666,-0.02133 -0.064,0.02133 -0.405333,-0.04267 -0.298666,-0.02133 -0.895998,-0.554666 -0.682666,-0.639999 -0.682666,-0.426666 0,0.064 -0.725332,0.767999 -0.725332,0.725332 -0.789332,0.725332 -0.064,0 -0.064,-0.08533 -0.02133,-0.064 0.02133,-0.192 0.04267,-0.127999 0.064,-0.149333 0.128,-0.106666 0.533333,-0.874665 0.127999,-0.298666 0.127999,-0.362666 0,-0.064 -0.106666,-0.128 -0.128,-0.106666 -0.128,-0.319999 -0.02133,-0.128 -0.02133,-1.002665 0.02133,-1.151999 0.128,-1.855997 0.08533,-0.597333 0.08533,-1.386665 0,-0.490666 -0.02133,-0.575999 -0.02133,-0.08533 -0.170666,-0.128 -0.170666,-0.04267 -0.170666,-0.234666 0,-0.170666 0.170666,-0.341333 0.597332,-0.618666 1.599998,-0.725332 0.618665,-0.04267 0.682665,-0.02133 z m 10.879983,16.853306 q -0.533333,0 -0.895999,-1.002665 -0.362666,-1.023998 -0.362666,-1.279998 0,-0.255999 0.170667,-0.703999 0.725332,-1.94133 1.962663,-4.223993 1.386665,-2.602662 2.26133,-4.01066 1.258665,-2.026664 2.837329,-4.479993 2.06933,-3.263995 2.154663,-3.413328 0.32,-0.533333 0.469333,-0.533333 0.277333,0 0.533332,0.874666 0.149333,0.383999 0.149333,0.597332 0,0.767999 -1.215998,2.751996 -1.386664,2.218663 -2.367996,3.690661 -1.130665,1.663997 -2.282663,3.541327 -1.173332,1.877331 -2.026664,3.882661 -0.874665,2.090663 -1.130664,3.797327 l -0.02133,0.277333 q 0,0.234666 -0.234666,0.234666 z m 13.269301,-5.546658 q -0.277333,0 -1.066665,0.256 -0.810665,0.256 -0.810665,0.575999 0,0.128 0.149333,0.128 0.597332,0 2.218663,-0.917332 -0.298666,-0.04267 -0.490666,-0.04267 z m 5.482658,-10.453316 q 0,0.234666 -0.213333,0.469332 -1.002665,1.130665 -2.346663,2.282663 -0.298666,0.256 -0.447999,0.256 -0.213333,0 -0.213333,-0.341333 0,-0.319999 0.298666,-0.874665 0.277333,-0.533333 0.277333,-0.639999 0,-0.08533 -0.064,-0.08533 -0.04267,0 -0.213333,0.04267 -2.453329,0.853332 -3.413328,2.751996 -0.213333,0.405333 -0.213333,0.703999 0,0.575999 0.853332,1.045331 0.02133,0.02133 1.151999,0.618666 2.047996,1.109332 2.602662,1.791997 0.853332,1.045332 0.853332,2.090664 0,0.426666 -0.213333,0.831998 -0.213333,0.426666 -0.575999,0.661333 -3.626661,2.239996 -6.421323,2.239996 -1.493331,0 -1.493331,-1.365331 0,-0.426666 0.298666,-0.853332 -0.511999,-0.362666 -0.511999,-0.789332 0,-0.426666 0.575999,-0.831999 1.365331,-1.023998 4.39466,-1.023998 0.341332,0 0.767998,0.213333 0.405333,0.191999 0.725333,0.490666 0.533332,-0.277333 0.533332,-0.533333 0,-0.255999 -0.277333,-0.469332 -0.511999,-0.362667 -1.493331,-0.789333 -0.959998,-0.405332 -1.407998,-0.661332 -0.874665,-0.511999 -1.365331,-1.471997 -0.490666,-0.981332 -0.490666,-2.047997 0,-1.045332 0.554666,-1.962664 0.554666,-0.895998 1.514664,-1.535997 1.557331,-1.023999 3.733328,-1.834664 0.256,-0.08533 0.469332,-0.08533 0.490666,0 0.831999,0.383999 0.938665,1.130665 0.938665,1.322665 z m 1.301344,11.263982 q 2.175997,-1.877331 3.413328,-5.610658 -2.687995,2.453329 -3.413328,5.610658 z m 0.554666,2.453329 q -0.639999,0 -1.194664,-0.810665 -0.170667,-0.234666 -0.32,-0.682666 -0.128,-0.362666 -0.405333,-0.831998 -0.255999,-0.384 -0.255999,-1.045332 0,-0.639999 0.255999,-1.151998 1.770664,-3.477328 3.690661,-4.735993 0.256,-0.191999 0.597333,-0.191999 0.341332,0 0.853332,0.383999 0.298666,0.298666 0.362666,0.511999 0.106666,0.533333 0.106666,0.575999 0.746666,0.256 0.746666,0.938665 0,0.490666 -0.256,2.111997 -0.277333,1.749331 -0.298666,2.474663 0,0.447999 0.298666,0.447999 0.341333,0 1.237331,-1.194665 0.874666,-1.194664 1.002665,-1.194664 0.213333,0 0.213333,0.703998 l -0.04267,1.045332 q 0,0.618666 -0.533333,1.621331 -0.533332,1.045332 -1.365331,1.045332 -0.533332,0 -0.810665,-0.341333 -0.064,-0.064 -0.32,-0.426666 -0.682665,-0.959999 -0.895998,-2.38933 -1.770664,3.135995 -2.666663,3.135995 z m 9.663971,-5.930657 q 1.279998,-0.383999 2.325329,-1.791997 -1.237331,0.533332 -2.325329,1.791997 z m 3.690661,4.479993 q 0,0.192 0.04267,0.362666 0.04267,0.170666 0.04267,0.234666 0,0.362666 -0.447999,0.511999 -0.512,0.170667 -1.023999,0.170667 -0.554666,0 -1.151998,-0.661332 -0.618666,-0.639999 -2.175997,-2.943996 v 0.533333 q 0,0.981332 0.106667,1.578664 0.08533,0.490666 0.08533,0.661332 0,0.703999 -0.810665,0.703999 -0.426666,0 -0.575999,-0.341333 -0.192,-0.405332 -0.341333,-1.023998 -0.170667,-0.746666 -0.170667,-1.002665 0,-0.234666 0.106667,-0.874665 0.08533,-0.533333 0.128,-0.895999 0,-0.08533 0.02133,-0.234666 0.02133,-0.170667 0.02133,-0.405333 0.02133,-0.256 0.04267,-0.469333 0.277333,-4.565326 1.322664,-10.794649 -0.08533,-0.32 -0.08533,-0.618666 0,-0.256 0.213333,-0.256 0.213333,0 0.469333,0.298667 0.341333,0.341332 0.575999,1.066665 0.213333,0.661332 0.213333,1.130665 0,0.490665 -0.08533,1.023998 -0.106667,0.746665 -0.32,1.81333 -0.469332,2.623996 -0.639999,4.031994 l 0.298666,-0.298666 q 0.170667,-0.149333 0.32,-0.298666 l 0.106666,-0.106667 q 0.106667,-0.08533 0.192,-0.170666 0.213333,-0.170667 0.362666,-0.256 l 0.128,-0.08533 q 0.128,-0.064 0.213333,-0.128 0.256,-0.149333 0.383999,-0.170666 0.384,-0.149333 0.810666,-0.149333 0.917332,0 1.407998,0.682665 0.469332,0.661333 0.469332,1.685331 0,0.682665 -0.192,1.023998 -0.213333,0.384 -0.298666,0.533333 -0.08533,0.149333 -0.362666,0.405332 l -0.383999,0.32 q -0.362666,0.277333 -1.066665,0.618666 -0.810666,0.383999 -0.895999,0.447999 -0.128,0.106666 -0.128,0.149333 0,0.08533 0.106667,0.192 1.087998,1.087998 2.346663,1.237331 l 0.234666,0.02133 q 0.426666,0 0.384,0.746666 z m 2.38935,-8.767986 q 0.490666,0 0.917332,0.362666 0.064,0.064 0.277333,0.213333 0.08533,0.064 0.191999,0.170666 0.128,0.08533 0.149333,0.106667 0.341333,0.319999 0.341333,0.533332 0,0.256 -0.383999,1.301332 -0.469333,1.322664 -0.810666,2.261329 -0.554665,1.493331 -0.554665,1.621331 0,0.149333 0.106666,0.149333 0.149333,0 1.279998,-2.026663 0.959999,-1.727998 1.685331,-3.178662 0.213333,-0.405333 0.597332,-0.405333 0.895999,0 0.895999,0.746666 0,0.383999 -0.554666,2.410663 -0.703999,2.623996 -0.703999,2.837329 0,0.234666 0.128,0.234666 0.106666,0 0.469332,-1.130665 0.341333,-1.109332 0.512,-1.109332 0.08533,0 0.213333,0.192 0.533332,1.087998 0.533332,2.047997 0,0.959998 -0.661332,2.154663 -0.277333,0.575999 -0.831999,0.575999 -0.319999,0 -0.490666,-0.170666 -0.383999,-0.426666 -0.511999,-0.661333 -0.405333,-0.490665 -0.661332,-1.834663 -0.192,0.319999 -0.384,0.789332 -0.490666,1.151998 -0.895998,1.642664 -0.256,0.362666 -0.639999,0.362666 -0.384,0 -0.874666,-0.554666 -0.703998,-0.959998 -0.703998,-2.154663 -0.02133,-1.151998 0.234666,-2.239997 0.192,-0.917331 0.746665,-2.538662 l 0.064,-0.256 q 0,-0.170666 -0.149333,-0.170666 l -0.490666,0.128 q -0.341333,0 -0.511999,-0.426666 -0.341333,-0.746666 -0.341333,-1.663998 0,-0.255999 0.213333,-0.255999 l 0.575999,0.127999 z m 12.245298,5.973324 q 0,0.917332 -0.597332,1.791997 -0.234666,0.447999 -0.810665,1.173331 -0.575999,0.661333 -0.767999,0.831999 -0.554666,0.405333 -0.917332,0.405333 -0.32,0 -0.533333,-0.04267 -0.170666,-0.02133 -0.319999,-0.192 -0.213333,-0.170666 -0.256,-0.213333 -0.106666,-0.064 -0.234666,-0.298666 -0.170666,-0.255999 -0.192,-0.277333 0,-0.02133 -0.04267,-0.064 -0.02133,-0.04267 -0.064,-0.106666 -0.04267,-0.08533 -0.08533,-0.170666 -0.149333,-0.277333 -0.149333,-0.298667 -0.405333,-0.725332 -0.405333,-1.429331 0,-0.639999 0.128,-1.258664 0.08533,-0.469333 0.362666,-1.429332 0.255999,-0.853332 0.319999,-1.087998 -0.298666,0.384 -0.853332,0.874665 -0.234666,0.170667 -0.447999,0.170667 -0.234666,0 -0.405333,-0.234666 -0.170666,-0.256 -0.426666,-0.959999 -0.255999,-0.725332 -0.255999,-1.023998 0,-0.277333 0.341333,-0.831999 0.319999,-0.490666 0.405332,-0.746665 0.106667,-0.384 0.32,-0.384 0.106666,0 0.511999,0.213333 0.405333,0.213333 0.533332,0.874665 0.02133,0.256 0.192,0.256 0.04267,0 0.383999,-0.234666 0.298667,-0.234667 0.682666,-0.234667 0.362666,0 1.109332,0.682666 0.255999,0.256 0.255999,0.725332 0,0.405333 -0.04267,0.661332 -0.064,0.192 -0.128,0.256 -0.192,0.149333 -0.277333,0.405333 -0.106667,0.341333 -0.575999,2.00533 -0.490666,1.791997 -0.490666,1.919997 0,0.170666 0.128,0.170666 0.191999,0 1.365331,-1.023998 0.575999,-0.490666 1.727997,-1.514664 0.341333,-0.234667 0.362666,-0.234667 0.149333,0 0.149333,0.874666 z m 1.429317,1.791997 q 2.175997,-1.877331 3.413328,-5.610658 -2.687996,2.453329 -3.413328,5.610658 z m 0.554666,2.453329 q -0.639999,0 -1.194665,-0.810665 -0.170666,-0.234666 -0.319999,-0.682666 -0.128,-0.362666 -0.405333,-0.831998 -0.255999,-0.384 -0.255999,-1.045332 0,-0.639999 0.255999,-1.151998 1.770664,-3.477328 3.690661,-4.735993 0.256,-0.191999 0.597332,-0.191999 0.341333,0 0.853332,0.383999 0.298667,0.298666 0.362666,0.511999 0.106667,0.533333 0.106667,0.575999 0.746665,0.256 0.746665,0.938665 0,0.490666 -0.255999,2.111997 -0.277333,1.749331 -0.298666,2.474663 0,0.447999 0.298666,0.447999 0.341333,0 1.237331,-1.194665 0.874665,-1.194664 1.002665,-1.194664 0.213333,0 0.213333,0.703998 l -0.04267,1.045332 q 0,0.618666 -0.533333,1.621331 -0.533332,1.045332 -1.365331,1.045332 -0.533333,0 -0.810665,-0.341333 -0.064,-0.064 -0.32,-0.426666 -0.682665,-0.959999 -0.895998,-2.38933 -1.770664,3.135995 -2.666663,3.135995 z"
       id="text1"
       transform="matrix(0.26458333,0,0,0.26458333,-0.28768645,-0.82390777)"
       aria-label="樱/Sakura " /></g></svg>
