<?xml version="1.0" encoding="UTF-8" standalone="no"?>
<!-- Created with Inkscape (http://www.inkscape.org/) -->

<svg
   width="25.344215mm"
   height="5.198525mm"
   viewBox="0 0 25.344215 5.198525"
   version="1.1"
   id="svg1"
   xml:space="preserve"
   sodipodi:docname="title.svg"
   inkscape:version="1.4.2 (ebf0e940d0, 2025-05-08)"
   xmlns:inkscape="http://www.inkscape.org/namespaces/inkscape"
   xmlns:sodipodi="http://sodipodi.sourceforge.net/DTD/sodipodi-0.dtd"
   xmlns="http://www.w3.org/2000/svg"
   xmlns:svg="http://www.w3.org/2000/svg"><sodipodi:namedview
     id="namedview1"
     pagecolor="#505050"
     bordercolor="#eeeeee"
     borderopacity="1"
     inkscape:showpageshadow="0"
     inkscape:pageopacity="0"
     inkscape:pagecheckerboard="0"
     inkscape:deskcolor="#505050"
     inkscape:document-units="mm"
     inkscape:zoom="10.29344"
     inkscape:cx="47.89458"
     inkscape:cy="9.8120743"
     inkscape:window-width="1920"
     inkscape:window-height="1043"
     inkscape:window-x="0"
     inkscape:window-y="0"
     inkscape:window-maximized="1"
     inkscape:current-layer="layer2" /><defs
     id="defs1" /><g
     id="layer2"
     style="display:inline"
     transform="translate(-3.010578,-2.9999964)"><g
       id="text1"
       style="font-size:21.3333px;font-family:'玄冬楷书';-inkscape-font-specification:'玄冬楷书';letter-spacing:0px;white-space:pre;fill:#a8a8a8;stroke-width:0.377953"
       transform="matrix(0.26458333,0,0,0.26458333,-0.28768645,-0.82390777)"
       aria-label="忆/Memories "><path
         style="fill:#000000"
         d="m 17.119215,17.503214 q 0.426666,0.192 0.554666,0.362666 0.127999,0.149333 0.127999,0.533333 0,0.447999 -0.213333,0.725332 -0.234666,0.341333 -0.234666,0.725332 0,0.426666 -0.128,0.981332 -0.08533,0.597332 -0.255999,6.570656 -0.02133,1.535998 -0.149333,2.26133 -0.128,0.853332 0.106666,1.81333 0.106667,0.448 0.02133,0.618666 -0.106666,0.213333 -0.170666,0.490666 -0.106666,0.383999 -0.319999,0.511999 -0.256,0.128 -0.512,-0.106666 -0.213333,-0.213333 -0.319999,-0.448 -0.106667,-0.234666 -0.192,-0.661332 l -0.21333,-1.087998 q -0.08533,-0.405333 0.04267,-0.767999 0.106666,-0.362666 0.170666,-1.535997 0.064,-1.215999 0.128,-2.026664 0.08533,-0.981332 0.256,-3.94666 0.191999,-4.20266 0.447999,-5.055992 0.064,-0.277333 0.853332,0.04267 z m 7.466655,1.386665 q 0.981331,-0.02133 1.130665,0.04267 0.08533,0.08533 0.469332,0.170667 0.32,0.106666 0.511999,0.298666 0.234667,0.234666 0.234667,0.447999 0,0.106667 -0.170667,0.554666 -0.128,0.213333 -0.234666,0.362666 -0.106667,0.106667 -0.447999,0.277333 -0.426666,0.213333 -1.002665,0.789332 -0.661333,0.618666 -0.874666,1.023998 -0.170666,0.298667 -0.234666,0.298667 -0.064,0 -0.447999,0.597332 -0.469333,0.725332 -0.661333,1.237331 -0.469332,1.066665 -0.618665,1.365332 -0.298666,0.703998 -0.213333,1.279998 0.106666,0.639999 0.511999,0.917331 0.725332,0.533333 3.669327,0.618666 0.874666,0.064 1.258665,0.02133 0.298666,-0.04267 0.703999,-0.127999 0.533333,-0.170667 0.959999,-0.448 0.426666,-0.255999 0.511999,-0.469332 0.064,-0.170667 0.255999,-0.746666 0.128,-0.490666 0.128,-0.661332 0,-0.128 0.170667,-0.703999 0.170666,-0.511999 0.341332,-0.511999 0.362666,0 0.426666,1.237331 0.02133,0.746666 0.213333,1.215998 0.192,0.490666 0.298666,1.066665 0.106667,0.703999 0.04267,1.023999 -0.192,1.258664 -1.535997,1.471997 l -0.959999,0.170667 q -0.362666,0.064 -1.962664,0.02133 -1.599997,-0.04267 -2.389329,-0.128 -1.215998,-0.128 -1.791997,-0.234666 -0.469333,-0.08533 -0.725332,-0.256 -0.767999,-0.511999 -1.237332,-1.429331 -0.170666,-0.383999 -0.213333,-0.639999 -0.04267,-0.298666 -0.04267,-1.023998 0,-1.066665 0.149333,-1.343998 0.127999,-0.256 0.127999,-0.383999 0,-0.128 0.128,-0.362666 0.32,-0.597333 0.725332,-1.621331 0.170667,-0.447999 0.234667,-0.511999 0.064,-0.064 0.426666,-0.746666 0.255999,-0.533332 1.066665,-1.770664 0.725332,-1.066665 0.682665,-1.151998 -0.04267,-0.04267 -0.597332,0.064 l -1.151998,0.192 q -0.618666,0.106666 -1.151998,0.319999 -0.533333,0.213333 -0.767999,0.192 -0.170667,-0.064 -0.32,-0.277333 -0.149333,-0.192 -0.191999,-0.426666 -0.02133,-0.341333 0.04267,-0.490666 0.04267,-0.106666 0.234666,-0.170666 0.149334,-0.02133 0.895999,-0.234667 0.767999,-0.191999 1.599998,-0.298666 0.533332,-0.064 1.791997,-0.106666 z m -10.389317,1.855997 q 0.234666,0.191999 0.319999,0.853332 0.064,0.639999 -0.106666,1.279998 -0.064,0.298666 -0.064,0.597332 0,0.32 0.08533,0.341333 0.106667,0.08533 0.08533,0.469333 -0.064,0.426665 -0.255999,0.767998 -0.213333,0.511999 -0.341333,0.597333 -0.149333,0.08533 -0.469333,0 -0.661332,-0.192 -0.767998,-1.087999 -0.106667,-0.682665 -0.149334,-0.917331 -0.106666,-0.426666 -0.04267,-0.597333 0.04267,-0.170666 0.362666,-0.725332 0.170666,-0.256 0.405333,-0.789332 0.191999,-0.490666 0.362666,-0.725332 0.234666,-0.362666 0.575999,-0.064 z m 4.714659,1.045331 q 0.511999,0.128 0.682666,0.362667 0.149333,0.213333 0.191999,0.725332 0.02133,0.831998 -0.426666,0.938665 -0.575999,0.170666 -1.386664,-0.767999 -0.746666,-0.853332 -0.447999,-1.215998 0.02133,-0.064 0.106666,-0.106666 0.447999,-0.170667 1.279998,0.064 z m 15.018643,12.309314 q -0.533333,0 -0.895999,-1.002665 -0.362666,-1.023998 -0.362666,-1.279998 0,-0.255999 0.170667,-0.703999 0.725332,-1.94133 1.962663,-4.223993 1.386665,-2.602662 2.26133,-4.01066 1.258665,-2.026664 2.837329,-4.479993 2.06933,-3.263995 2.154663,-3.413328 0.32,-0.533333 0.469333,-0.533333 0.277333,0 0.533332,0.874666 0.149333,0.383999 0.149333,0.597332 0,0.767999 -1.215998,2.751996 -1.386664,2.218663 -2.367996,3.690661 -1.130665,1.663997 -2.282663,3.541327 -1.173332,1.877331 -2.026664,3.882661 -0.874665,2.090663 -1.130664,3.797327 l -0.02133,0.277333 q 0,0.234666 -0.234666,0.234666 z"
         id="path7" /><path
         style="fill:#000000"
         d="m 58.463139,24.863203 q 0,0.319999 -0.02133,0.469332 -0.362666,4.07466 -2.026663,5.930657 -0.554666,0.618666 -1.813331,0.661333 -1.535997,-0.554666 -1.535997,-2.709329 0,-0.448 0.08533,-0.981332 0.298666,-1.855997 1.429331,-8.255987 -1.855997,3.754661 -2.410663,9.258652 -0.02133,0.234666 -0.064,0.554666 -0.04267,0.319999 -0.04267,0.405333 -0.106667,0.682665 -0.575999,0.682665 -0.661333,0 -1.407998,-1.002665 -0.256,-0.341333 -0.256,-0.853332 0,-0.319999 0.04267,-1.130665 0.04267,-0.917332 0.106666,-1.365331 0.08533,-0.725332 0.128,-1.194665 0.02133,-0.213333 0.213333,-1.365331 0.170667,-0.959998 0.192,-1.194665 0.04267,-0.255999 0.255999,-1.343998 0.04267,-0.277333 0.08533,-0.597332 0.064,-0.32 0.08533,-0.447999 0.04267,-0.128 0.04267,-0.170667 -0.341332,0.341333 -0.554665,0.959999 -0.064,0.170666 -0.213333,0.533332 -0.128,0.341333 -0.192,0.490666 -0.064,0.170667 -0.298666,0.959999 -0.149333,0.533332 -0.256,0.959998 -0.02133,0.106667 -0.106666,0.447999 -0.08533,0.32 -0.128,0.533333 -0.08533,0.341333 -0.213333,0.874665 -0.02133,0.106667 -0.490666,2.06933 -0.128,0.554666 -0.277333,1.173332 -0.128,0.618665 -0.149333,0.725332 -0.02133,0.106666 -0.064,0.256 -0.04267,0.127999 -0.064,0.234666 -0.02133,0.08533 -0.02133,0.149333 l -0.08533,0.341333 q -0.04267,0.149333 -0.128,0.277333 -0.170667,0.298666 -0.533333,0.298666 -0.383999,0 -0.639999,-0.277333 -0.255999,-0.234666 -0.362666,-0.469333 -0.064,-0.128 -0.213333,-0.575999 -0.149333,-0.319999 -0.149333,-0.575999 0,-0.192 0.128,-0.746665 0.04267,-0.192 0.149333,-0.639999 0.106667,-0.448 0.170666,-0.682666 0.128,-0.682666 0.234667,-1.023998 0,-0.064 0.02133,-0.192 0.04267,-0.128 0.08533,-0.341333 0.064,-0.213333 0.106667,-0.405333 0.064,-0.277332 0.128,-0.618665 0.064,-0.341333 0.08533,-0.405333 0.064,-0.298666 0.191999,-0.959998 0.128,-0.639999 0.192,-1.023999 0.149333,-0.789332 0.170667,-0.959998 0.02133,-0.128 0.064,-0.341333 0.04267,-0.234666 0.064,-0.383999 0.02133,-0.170667 0.04267,-0.298667 0.213333,-1.407997 0.256,-1.962663 v -0.149333 q 0,-0.384 -0.170667,-0.384 -0.170666,0 -0.554666,0.597333 -0.362666,0.575999 -0.533332,0.917332 -0.149333,0.298666 -0.213333,0.874665 -0.277333,2.965329 -1.535998,4.821326 -0.149333,0.213333 -0.469332,0.213333 -0.32,0 -0.661333,-0.341333 -0.362666,-0.362666 -0.362666,-0.703999 0,-2.175997 1.471998,-5.034659 0.597332,-1.130665 0.938665,-3.221328 0.575999,0.874665 0.725332,1.130665 0.128,0.277333 0.298667,0.277333 0.106666,0 0.383999,-0.256 0.277333,-0.255999 0.895999,-0.255999 0.575999,0 0.938665,0.298666 0.383999,0.298666 0.469332,0.682665 0.106667,0.384 0.128,1.151998 0.04267,-0.02133 0.106667,-0.08533 0.064,-0.064 0.149333,-0.149333 0.106666,-0.106666 0.191999,-0.170666 0.661333,-0.597333 1.215998,-0.597333 0.512,0 0.938666,0.554666 0.405332,0.554666 0.362666,1.173332 0.277333,-0.32 0.938665,-1.471998 0.469333,-0.767999 1.301331,-0.767999 1.343998,0 1.343998,1.215998 0,0.533333 -0.511999,3.071995 -0.554666,2.730663 -0.746666,4.138661 -0.234666,1.706664 -0.234666,3.093328 v 0.405333 q 0.767999,-0.661333 1.386665,-1.514665 0.597332,-0.789332 0.981331,-1.450664 0.597333,-1.002665 1.002665,-1.749331 0.192,-0.298666 0.256,-0.298666 0.106667,0 0.106667,0.234667 z m 4.30933,0.405332 q 0.661332,-0.810665 0.661332,-1.151998 0,-0.298666 -0.213333,-0.298666 -0.213333,0 -0.767999,0.554666 -0.597332,0.597332 -0.874665,0.959998 -0.04267,0.341333 -0.04267,0.384 0,0.383999 0.213333,0.383999 0.341332,0 1.023998,-0.831999 z m -0.831999,6.65599 q -1.386664,0 -1.983997,-0.703999 -0.618665,-0.682666 -1.109331,-2.154663 -0.170667,-0.575999 -0.170667,-1.194665 0,-0.639999 0.575999,-1.685331 0.490666,-0.938665 1.237332,-1.834664 0.08533,-1.173331 0.533332,-1.173331 0.234667,0 0.32,0.277333 0.405333,-0.384 1.087998,-0.789332 0.639999,-0.384 1.151998,-0.384 0.533333,0 1.066665,0.597333 0.533333,0.597332 0.533333,1.215998 0,0.618665 -0.874666,1.727997 -1.642664,2.047997 -2.581329,2.047997 -0.682665,0 -1.066665,-1.130665 l -0.191999,0.341333 q -0.213333,0.341333 -0.256,0.469332 -0.064,0.106667 -0.213333,0.405333 -0.213333,0.447999 -0.213333,0.874665 0,0.874666 0.874665,0.874666 1.429331,0 2.474663,-0.618666 1.066665,-0.661332 2.00533,-1.834664 0.08533,0.831999 0.08533,1.429331 0,3.242662 -3.285328,3.242662 z m 11.114647,-7.637321 q 0,-0.256 -0.04267,-0.256 -0.106666,0 -0.191999,0.341333 -0.405333,1.045331 -1.791997,6.122657 -0.234667,0.746665 -0.448,0.746665 -0.08533,0 -0.383999,-0.170666 -1.087998,-0.810666 -1.087998,-1.94133 0,-0.874666 0.298666,-2.495997 0.341333,-1.898663 0.341333,-2.133329 0,-0.149334 -0.04267,-0.149334 -0.08533,0 -0.170666,0.213333 -1.109332,2.623996 -1.322665,6.207991 -0.04267,0.639999 -0.426666,0.639999 -0.511999,0 -0.917332,-0.597333 -0.746665,-1.066665 -0.746665,-2.389329 0,-0.895999 0.213333,-2.111997 0.04267,-0.32 0.106666,-0.703999 0.064,-0.383999 0.08533,-0.575999 0.04267,-0.192 0.04267,-0.277333 0.362666,-2.239996 0.661332,-2.239996 0.234666,0 0.362666,0.597332 0.128,0.618666 0.128,0.895999 0,0.277333 0.08533,0.277333 0.234667,0 0.469333,-0.512 0.234666,-0.511999 0.575999,-1.002665 0.362666,-0.490666 0.853332,-0.490666 0.490666,0 0.917332,0.362666 0.447999,0.405333 0.533332,0.917332 0.32,-0.447999 0.853332,-1.002665 0.32,-0.447999 0.661333,-0.447999 0.319999,0 0.959998,0.319999 0.874665,0.448 0.874665,2.346663 0,1.898664 -0.127999,3.263995 v 0.149333 q 0,0.32 0.127999,0.32 0.192,0 0.938666,-1.087998 0.746665,-1.066665 0.917331,-1.066665 0.298667,0 0.298667,1.514664 0,1.535997 -1.087999,3.050662 -0.511999,0.703999 -0.874665,0.703999 l -0.234666,-0.064 q -0.874666,-0.448 -1.215998,-1.023999 -0.362666,-0.597332 -0.362666,-1.834663 z m 6.826673,-1.173332 q -0.234667,0 -0.426666,0.362666 -0.853332,1.983997 -0.853332,4.842659 0,0.831999 0.02133,1.066665 1.749331,-1.343998 1.749331,-4.309326 0,-1.962664 -0.490666,-1.962664 z m 0.767998,7.935987 q -0.554665,0.682666 -1.173331,0.682666 -0.661332,0 -1.045332,-0.319999 -1.386664,-1.151999 -1.386664,-3.946661 0,-1.962663 1.045332,-4.949325 0.106666,-0.234667 0.149333,-0.277333 0.08533,-0.04267 0.234666,-0.04267 0.149333,0 0.383999,-0.234666 0.213333,-0.213333 0.789332,-0.213333 0.554666,0 1.087999,0.405333 0.554665,0.426666 0.810665,1.087998 0.597332,1.578664 0.597332,3.221328 0,2.581329 -1.493331,4.586659 z m 8.831975,-3.477327 q 0,0.917332 -0.597332,1.791997 -0.234667,0.447999 -0.810666,1.173331 -0.575999,0.661333 -0.767999,0.831999 -0.554665,0.405333 -0.917332,0.405333 -0.319999,0 -0.533332,-0.04267 -0.170666,-0.02133 -0.32,-0.192 -0.213333,-0.170666 -0.255999,-0.213333 -0.106667,-0.064 -0.234666,-0.298666 -0.170667,-0.255999 -0.192,-0.277333 0,-0.02133 -0.04267,-0.064 -0.02133,-0.04267 -0.064,-0.106666 -0.04267,-0.08533 -0.08533,-0.170666 -0.149333,-0.277333 -0.149333,-0.298667 -0.405333,-0.725332 -0.405333,-1.429331 0,-0.639999 0.128,-1.258664 0.08533,-0.469333 0.362666,-1.429332 0.256,-0.853332 0.32,-1.087998 -0.298666,0.384 -0.853332,0.874665 -0.234666,0.170667 -0.447999,0.170667 -0.234667,0 -0.405333,-0.234666 -0.170667,-0.256 -0.426666,-0.959999 -0.256,-0.725332 -0.256,-1.023998 0,-0.277333 0.341333,-0.831999 0.32,-0.490666 0.405333,-0.746665 0.106666,-0.384 0.319999,-0.384 0.106667,0 0.511999,0.213333 0.405333,0.213333 0.533333,0.874665 0.02133,0.256 0.192,0.256 0.04267,0 0.383999,-0.234666 0.298666,-0.234667 0.682666,-0.234667 0.362666,0 1.109331,0.682666 0.256,0.256 0.256,0.725332 0,0.405333 -0.04267,0.661332 -0.064,0.192 -0.128,0.256 -0.191999,0.149333 -0.277333,0.405333 -0.106666,0.341333 -0.575999,2.00533 -0.490666,1.791997 -0.490666,1.919997 0,0.170666 0.128,0.170666 0.192,0 1.365331,-1.023998 0.576,-0.490666 1.727998,-1.514664 0.341333,-0.234667 0.362666,-0.234667 0.149333,0 0.149333,0.874666 z m 4.522645,-1.642664 q 0.08533,0 0.149333,0.533332 0.04267,0.725332 0.04267,1.407998 0,0.938665 -0.405333,1.898664 -0.426666,1.045331 -1.215998,1.642664 -0.426666,0.341332 -0.810665,0.341332 -0.384,0 -0.618666,-0.170666 -0.256,-0.170666 -0.447999,-0.511999 -0.341333,-0.533333 -0.618666,-1.322665 -0.319999,-0.810665 -0.319999,-1.74933 0,-1.002665 0.149333,-1.898664 0.149333,-0.895999 0.149333,-1.301331 0,-0.32 -0.341333,-0.853332 -0.341333,-0.490666 -0.341333,-0.618666 0,-0.128 0.08533,-0.234666 0.08533,-0.128 0.192,-0.234667 0.064,-0.064 0.234666,-0.191999 0.04267,-0.04267 0.256,-0.213333 0.469333,-0.405333 0.895999,-0.405333 0.426666,0 0.725332,0.277333 0.298666,0.298666 0.298666,0.959998 -0.04267,0.789333 -0.341333,2.58133 -0.405333,2.367996 -0.405333,2.794662 0,0.362666 0.192,0.362666 0.426666,0 2.154663,-2.730662 0.234667,-0.362666 0.341333,-0.362666 z M 92.85241,18.761879 q -0.639999,1.322664 -1.130665,1.81333 -0.08533,0.128 -0.255999,0.128 -0.533333,0 -0.533333,-0.853332 0,-0.831999 0.746666,-2.389329 0.170666,-0.32 0.191999,-0.661333 0.02133,-0.341332 0.064,-0.405332 0,-0.064 0.02133,-0.08533 0,-0.04267 0.02133,-0.08533 0,-0.064 0.02133,-0.08533 0,-0.04267 0.02133,-0.064 l 0.04267,-0.04267 q 0.08533,-0.04267 0.341333,-0.04267 0.255999,0 0.661332,0.234666 0.383999,0.213333 0.383999,0.597333 0,0.725332 -0.597332,1.94133 z m 5.65332,6.506656 q 0.661332,-0.810665 0.661332,-1.151998 0,-0.298666 -0.213333,-0.298666 -0.213333,0 -0.767998,0.554666 -0.597333,0.597332 -0.874666,0.959998 -0.04267,0.341333 -0.04267,0.384 0,0.383999 0.213333,0.383999 0.341332,0 1.023998,-0.831999 z m -0.831999,6.65599 q -1.386664,0 -1.983997,-0.703999 -0.618665,-0.682666 -1.109331,-2.154663 -0.170667,-0.575999 -0.170667,-1.194665 0,-0.639999 0.576,-1.685331 0.490665,-0.938665 1.237331,-1.834664 0.08533,-1.173331 0.533332,-1.173331 0.234667,0 0.32,0.277333 0.405333,-0.384 1.087998,-0.789332 0.639999,-0.384 1.151998,-0.384 0.533333,0 1.066665,0.597333 0.53333,0.597332 0.53333,1.215998 0,0.618665 -0.87466,1.727997 -1.642666,2.047997 -2.581332,2.047997 -0.682665,0 -1.066665,-1.130665 l -0.191999,0.341333 q -0.213333,0.341333 -0.256,0.469332 -0.064,0.106667 -0.213333,0.405333 -0.213333,0.447999 -0.213333,0.874665 0,0.874666 0.874665,0.874666 1.429331,0 2.474663,-0.618666 1.066665,-0.661332 2.005334,-1.834664 0.0853,0.831999 0.0853,1.429331 0,3.242662 -3.285329,3.242662 z m 8.490649,-10.026651 q 0.53333,0 1.32266,0.426666 0.768,0.447999 0.768,1.023998 0,0.597333 -0.448,1.066665 -0.46933,0.469333 -1.04533,0.469333 -0.85333,0 -1.216,-0.810665 -0.0213,-0.128 -0.128,-0.128 -0.10666,0 -0.704,0.255999 -0.23466,0.106667 -0.53333,0.234667 -0.27733,0.127999 -0.29866,0.127999 -0.21334,0.08533 -0.21334,0.192 0,0.08533 0.29867,0.256 3.79733,1.023998 3.79733,3.135995 0,0.746665 -0.576,1.535997 -0.61867,0.810666 -1.664,1.322665 -1.06667,0.511999 -2.048,0.511999 -0.98133,0 -1.36533,-0.533332 -0.40533,-0.533333 -0.40533,-1.535998 0,-1.023998 0.704,-1.493331 0.93866,-0.618666 1.536,-0.618666 0.14933,0 0.14933,0.064 0,0.08533 -0.32,0.277333 -0.32,0.170667 -0.704,0.554666 -0.384,0.362666 -0.384,0.575999 0,0.234666 0.512,0.234666 1.38666,0 2.688,-0.767998 0.29866,-0.170667 0.29866,-0.362667 0,-0.170666 -0.448,-0.405332 -0.27733,-0.149333 -1.49333,-0.618666 -1.06666,-0.426666 -1.664,-0.703999 -0.61866,-0.298666 -0.61866,-0.938665 0,-0.170666 0.10666,-0.554666 0.0427,-0.149333 0.0853,-0.319999 l 0.0213,-0.149333 q 0.0853,-0.725333 0.68267,-1.023999 0.53333,-0.277333 2.43199,-1.151998 0.29867,-0.149333 0.87467,-0.149333 z"
         id="path8" /></g></g></svg>
