<?xml version="1.0" encoding="UTF-8" standalone="no"?>
<!-- Created with Inkscape (http://www.inkscape.org/) -->

<svg
   width="20.186377mm"
   height="6.1750126mm"
   viewBox="0 0 20.186377 6.1750126"
   version="1.1"
   id="svg1"
   xml:space="preserve"
   sodipodi:docname="title.svg"
   inkscape:version="1.4.2 (ebf0e940d0, 2025-05-08)"
   xmlns:inkscape="http://www.inkscape.org/namespaces/inkscape"
   xmlns:sodipodi="http://sodipodi.sourceforge.net/DTD/sodipodi-0.dtd"
   xmlns="http://www.w3.org/2000/svg"
   xmlns:svg="http://www.w3.org/2000/svg"><sodipodi:namedview
     id="namedview1"
     pagecolor="#505050"
     bordercolor="#eeeeee"
     borderopacity="1"
     inkscape:showpageshadow="0"
     inkscape:pageopacity="0"
     inkscape:pagecheckerboard="0"
     inkscape:deskcolor="#505050"
     inkscape:document-units="mm"
     inkscape:zoom="12.923526"
     inkscape:cx="38.147483"
     inkscape:cy="11.684118"
     inkscape:window-width="1920"
     inkscape:window-height="1043"
     inkscape:window-x="0"
     inkscape:window-y="0"
     inkscape:window-maximized="1"
     inkscape:current-layer="layer2" /><defs
     id="defs1" /><g
     id="layer2"
     style="display:inline"
     transform="translate(-3.1787376,-2.9999965)"><path
       style="font-size:21.3333px;font-family:'玄冬楷书';-inkscape-font-specification:'玄冬楷书';letter-spacing:0px;white-space:pre;stroke-width:0.377953"
       d="m 29.151196,15.881883 q 0.490666,-0.04267 0.810665,0.298667 0.32,0.234666 0.469333,0.362666 0.213333,0.149333 0.277333,0.255999 0.064,0.106667 0.064,0.32 0,0.341333 -0.170667,0.639999 -0.128,0.192 -0.170666,0.554666 -0.02133,0.341332 0,1.727997 0.04267,2.218663 0.08533,2.943995 0.08533,1.173332 0.106666,2.06933 0.02133,0.959999 0.149334,1.770664 0.170666,1.279998 0.106666,3.221328 -0.064,2.047997 -0.277333,2.26133 -0.106666,0.106667 -0.106666,0.256 0,0.789332 -1.514665,1.855997 -0.255999,0.192 -0.319999,0.170666 -0.064,0 -0.064,-0.213333 0,-0.191999 -0.106666,-0.447999 -0.128,-0.213333 -0.277333,-0.213333 -0.106667,0 -0.533333,-0.426666 -0.405333,-0.405333 -0.405333,-0.533333 0,-0.106666 -0.106666,-0.106666 -0.106667,0 -0.106667,-0.149333 0,-0.128 -0.170666,-0.234666 -0.469333,-0.234667 0.170666,-0.234667 0.32,0 0.512,0.02133 0.575999,0.04267 0.767998,0 0.192,0 0.277333,-0.08533 0.298667,-0.277333 0.405333,-0.725332 0.04267,-0.341333 0.08533,-1.855997 0.02133,-1.791997 -0.04267,-2.303996 -0.106667,-0.448 -0.128,-2.837329 -0.106667,-3.583994 -0.192,-6.570656 -0.04267,-0.959999 -0.02133,-1.066665 0.02133,-0.213333 0.149333,-0.298667 0.192,-0.149333 0.149333,-0.298666 -0.064,-0.128 0.128,-0.128 z m -9.557318,0.256 q 0.191999,0.192 0.298666,0.213333 0.106666,0.04267 0.149333,0.469333 0.04267,0.426666 0.149333,0.575999 0.128,0.213333 0.149333,0.319999 0.04267,0.192 0.639999,0.256 1.109332,0.170666 1.749331,0.469332 0.661332,0.32 0.661332,0.703999 0,0.277333 -0.170666,0.661333 -0.192,0.341332 -0.448,0.447999 -0.255999,0.106666 -0.319999,0.106666 -0.128,0 -0.426666,-0.149333 -0.106667,-0.04267 -0.234667,-0.08533 -0.127999,-0.064 -0.191999,-0.08533 -0.064,-0.04267 -0.106667,-0.04267 -0.575999,-0.255999 -0.746665,-0.554666 -0.064,-0.127999 -0.362666,-0.447999 -0.192,-0.255999 -0.213333,-0.469332 -0.064,-0.234667 0.08533,-0.384 0,-0.08533 -0.192,-0.08533 -0.234666,0 -0.405333,0.256 -0.149333,0.277333 -0.234666,0.277333 -0.08533,0 -0.08533,0.106666 0,0.128 -0.234666,0.319999 -0.256,0.256 -0.405333,0.576 -0.170666,0.362666 -0.447999,0.661332 -0.277333,0.298666 -0.448,0.661332 -0.149333,0.341333 -0.575999,0.789332 -0.554665,0.597333 -1.983997,2.026664 -1.365331,1.365331 -1.68533,1.493331 -0.384,0.191999 -0.426666,0.191999 -0.08533,0 0.08533,-0.298666 0.128,-0.298666 0.426666,-0.725332 0.298666,-0.405333 0.511999,-0.703999 0.32,-0.319999 0.789332,-1.023998 0.490666,-0.810666 0.597333,-1.023999 0.234666,-0.469332 0.554665,-0.938665 0.533333,-0.789332 1.066665,-1.81333 0.04267,-0.08533 0.298667,-0.469333 0.213333,-0.341333 0.234666,-0.383999 0.064,-0.128 0.128,-0.192 0.08533,-0.08533 0.469332,-0.767999 0.426666,-0.703999 0.639999,-0.895998 0.32,-0.362666 0.661333,-0.04267 z m 6.07999,4.245327 q 0.08533,0 0.383999,0.170666 0.256,0.170666 0.426666,0.639999 0.149333,0.447999 0.106667,0.533333 -0.064,0.08533 0.04267,0.149333 0.02133,0.02133 0.064,-0.064 0.02133,-0.02133 0.04267,-0.04267 0.064,-0.08533 0.128,-0.298666 0.170666,-0.362666 0.426666,-0.767999 0.213333,-0.298666 0.234666,-0.213333 0.02133,0 0.02133,0.02133 0,0.02133 0.02133,0.04267 0.02133,0.08533 -0.08533,0.789332 -0.064,0.362666 -0.277332,1.301331 -0.128,0.405333 -0.213333,0.981332 -0.064,0.469333 -0.170667,0.725332 -0.234666,0.575999 -0.064,1.066665 0.064,0.213333 -0.08533,0.682666 -0.149333,0.490666 -0.341333,0.597332 -0.106666,0.064 -0.490666,-0.191999 -0.383999,-0.213333 -0.383999,-0.384 0,-0.128 -0.128,-0.234666 -0.128,-0.106667 -0.234666,-0.554666 -0.128,-0.447999 -0.02133,-0.575999 0.106666,-0.149333 0.213333,-1.023998 0.08533,-0.725332 0.04267,-1.663998 -0.02133,-1.109331 0.128,-1.386664 0.128,-0.277333 0.213333,-0.298666 z m -5.397325,1.194664 q 0.128,0 0.639999,0.170667 0.511999,0.170666 0.661332,0.319999 0.192,0.192 0.213333,0.512 0.064,0.341332 -0.170666,0.767998 -0.149333,0.277333 -0.192,0.533333 -0.04267,0.383999 -0.02133,1.215998 0,1.322664 -0.128,1.87733 -0.149333,0.448 -0.191999,0.533333 -0.064,0.128 -0.405333,0.341333 -0.234666,0.149333 -0.32,0.149333 -0.064,0 -0.127999,-0.128 -0.064,-0.170667 -0.277333,-0.234666 -0.213333,-0.064 -0.533333,-0.512 L 19.017878,26.5272 q -0.106666,-0.128 0.064,-0.362666 0.192,-0.256 0.426666,-0.341333 0.32,-0.08533 0.384,-0.256 0.04267,-0.234666 0.106666,-1.407997 l 0.04267,-1.237332 h -0.234666 q -0.277333,0 -0.703999,0.213333 -0.426666,0.213333 -0.746666,0.533333 -0.213333,0.213333 -0.277333,0.383999 -0.08533,0.192 -0.106666,0.853332 -0.08533,1.237332 -0.149333,1.855997 -0.064,0.618666 -0.106667,1.813331 0,0.597332 0.04267,0.810665 0.04267,0.192 0.213333,0.426666 0.298666,0.384 0.554666,0.511999 0.554665,0.298666 2.389329,0 0.490666,-0.064 0.789332,-0.170666 0.298666,-0.128 0.703999,-0.426666 0.981332,-0.661332 0.981332,-1.173332 0,-0.149333 0.106666,-0.725332 0.064,-0.426666 0.128,-0.426666 0.02133,0 0.08533,0.08533 0.106667,0.170667 0.170667,0.597333 0.064,0.447999 0.149333,0.533332 0.213333,0.298667 0.298666,1.642664 0.064,0.789332 -0.170666,1.215998 -0.234667,0.448 -0.810666,0.661333 -0.554665,0.149333 -1.429331,0.234666 -0.959998,0.106667 -1.834664,0.064 -0.959998,-0.04267 -1.343997,-0.170666 -0.426666,-0.128 -0.831999,-0.554666 -0.256,-0.234667 -0.533333,-0.746666 -0.298666,-0.554665 -0.319999,-0.810665 -0.02133,-0.170666 -0.064,-0.277333 -0.08533,-0.106666 -0.106666,-3.135995 l -0.02133,-3.071995 0.277333,-0.533333 q 0.192,-0.319999 0.256,-0.426666 0.106666,-0.106666 0.191999,-0.106666 0.149334,0.02133 0.810666,-0.362666 0.618665,-0.341333 1.151998,-0.511999 0.511999,-0.149334 0.725332,-0.149334 z m 13.653312,12.522647 q -0.533333,0 -0.895999,-1.002665 -0.362666,-1.023998 -0.362666,-1.279998 0,-0.255999 0.170667,-0.703999 0.725332,-1.94133 1.962663,-4.223993 1.386665,-2.602662 2.26133,-4.01066 1.258665,-2.026664 2.837329,-4.479993 2.06933,-3.263995 2.154663,-3.413328 0.32,-0.533333 0.469333,-0.533333 0.277333,0 0.533332,0.874666 0.149333,0.383999 0.149333,0.597332 0,0.767999 -1.215998,2.751996 -1.386664,2.218663 -2.367996,3.690661 -1.130665,1.663997 -2.282663,3.541327 -1.173332,1.877331 -2.026664,3.882661 -0.874665,2.090663 -1.130664,3.797327 l -0.02133,0.277333 q 0,0.234666 -0.234666,0.234666 z m 14.805299,-2.367996 q -0.447999,0.469333 -1.237331,0.469333 -1.279998,0 -2.111997,-0.639999 -1.535998,-1.173332 -1.535998,-4.693326 0,-2.282663 0.938666,-4.906659 0.895998,-2.474663 2.389329,-4.714659 0.213333,-0.256 0.32,-0.256 0.106666,0 0.255999,0.064 0.02133,0.02133 0.08533,0.04267 0.064,0.02133 0.106667,0.064 0.064,0.02133 0.106666,0.04267 l 0.213333,0.106667 v -0.639999 q -0.127999,-0.256 -0.127999,-0.448 0,-0.191999 0.170666,-0.191999 0.170666,0 0.362666,0.064 1.87733,0.639999 1.87733,3.071996 0,1.386664 -0.703998,2.837328 -0.192,0.384 -0.341333,0.384 -0.106667,0 -0.32,-0.341333 -0.682665,-1.429331 -0.874665,-3.647994 -0.298666,0 -0.469333,0.234666 -0.149333,0.213333 -0.511999,1.237331 -1.343998,3.605328 -1.343998,7.445322 0,2.13333 0.469333,3.605328 1.429331,-1.343998 2.410663,-3.242662 1.023998,-1.983997 1.493331,-3.94666 0.511999,1.706664 0.511999,2.986662 0,2.794662 -2.13333,5.013325 z m 9.301335,-0.639999 q -0.469333,0.597332 -0.810666,0.597332 -0.341332,0 -0.682665,-0.341332 -1.194665,-1.386665 -1.194665,-3.327995 0,-0.703999 0.149333,-1.322665 0.256,-1.173331 0.256,-1.514664 0,-0.341333 -0.04267,-0.341333 -0.106666,0 -1.685331,5.866658 -0.191999,0.597332 -0.405332,0.597332 -0.554666,0 -1.365331,-1.983997 -0.426666,-0.959998 -0.426666,-2.26133 0,-1.493331 0.191999,-2.517329 0.04267,-0.298666 0.08533,-0.575999 0.064,-0.298666 0.08533,-0.469333 0.04267,-0.170666 0.04267,-0.234666 0.02133,-0.170666 0.170667,-0.789332 0.02133,-0.170666 0.04267,-0.298666 0.04267,-0.149333 0.064,-0.256 0.04267,-0.128 0.04267,-0.149333 0.149333,-0.597332 0.341333,-1.514664 -0.533333,0 -0.533333,-0.32 0,-0.170666 0.128,-0.319999 1.194665,-1.87733 1.663997,-3.285328 0.106667,-0.362666 0.341333,-0.362666 0.362666,0 0.511999,0.661332 0.170667,0.725332 0.170667,1.151998 0,1.237331 -0.810666,1.983997 -0.959998,5.951991 -0.959998,6.250657 0,0.298666 0.08533,0.298666 0.106666,0 0.319999,-0.405333 0.213333,-0.362666 0.703999,-1.514664 0.426666,-0.981332 0.810666,-1.642664 0.469332,-0.789332 1.194664,-0.789332 1.151999,0 1.151999,2.154663 0,1.727997 -0.810666,4.415993 -0.02133,0.064 -0.02133,0.170667 0,0.234666 0.234666,0.234666 0.213333,0 0.789332,-0.618666 0.554666,-0.618666 0.682666,-0.618666 0.106666,0 0.106666,0.810666 0,1.663997 -0.618665,2.581329 z m 2.687997,-9.493318 q 0.490666,0 0.917332,0.362666 0.064,0.064 0.277333,0.213333 0.08533,0.064 0.192,0.170666 0.127999,0.08533 0.149333,0.106667 0.341332,0.319999 0.341332,0.533332 0,0.256 -0.383999,1.301332 -0.469333,1.322664 -0.810665,2.261329 -0.554666,1.493331 -0.554666,1.621331 0,0.149333 0.106666,0.149333 0.149333,0 1.279998,-2.026663 0.959999,-1.727998 1.685331,-3.178662 0.213333,-0.405333 0.597332,-0.405333 0.895999,0 0.895999,0.746666 0,0.383999 -0.554666,2.410663 -0.703999,2.623996 -0.703999,2.837329 0,0.234666 0.128,0.234666 0.106667,0 0.469333,-1.130665 0.341333,-1.109332 0.511999,-1.109332 0.08533,0 0.213333,0.192 0.533332,1.087998 0.533332,2.047997 0,0.959998 -0.661332,2.154663 -0.277333,0.575999 -0.831999,0.575999 -0.319999,0 -0.490665,-0.170666 -0.384,-0.426666 -0.512,-0.661333 -0.405332,-0.490665 -0.661332,-1.834663 -0.192,0.319999 -0.383999,0.789332 -0.490666,1.151998 -0.895999,1.642664 -0.256,0.362666 -0.639999,0.362666 -0.383999,0 -0.874665,-0.554666 -0.703999,-0.959998 -0.703999,-2.154663 -0.02133,-1.151998 0.234666,-2.239997 0.192,-0.917331 0.746666,-2.538662 l 0.064,-0.256 q 0,-0.170666 -0.149333,-0.170666 l -0.490666,0.128 q -0.341333,0 -0.512,-0.426666 -0.341332,-0.746666 -0.341332,-1.663998 0,-0.255999 0.213333,-0.255999 l 0.575999,0.127999 z m 7.125311,7.765321 q 2.175996,-1.877331 3.413328,-5.610658 -2.687996,2.453329 -3.413328,5.610658 z m 0.554665,2.453329 q -0.639999,0 -1.194664,-0.810665 -0.170667,-0.234666 -0.32,-0.682666 -0.128,-0.362666 -0.405333,-0.831998 -0.255999,-0.384 -0.255999,-1.045332 0,-0.639999 0.255999,-1.151998 1.770664,-3.477328 3.690661,-4.735993 0.256,-0.191999 0.597333,-0.191999 0.341333,0 0.853332,0.383999 0.298666,0.298666 0.362666,0.511999 0.106666,0.533333 0.106666,0.575999 0.746666,0.256 0.746666,0.938665 0,0.490666 -0.256,2.111997 -0.277333,1.749331 -0.298666,2.474663 0,0.447999 0.298666,0.447999 0.341333,0 1.237332,-1.194665 0.874665,-1.194664 1.002665,-1.194664 0.213333,0 0.213333,0.703998 l -0.04267,1.045332 q 0,0.618666 -0.533332,1.621331 -0.533333,1.045332 -1.365332,1.045332 -0.533332,0 -0.810665,-0.341333 -0.064,-0.064 -0.319999,-0.426666 -0.682666,-0.959999 -0.895999,-2.38933 -1.770664,3.135995 -2.666663,3.135995 z m 13.909294,-3.242661 q -0.08533,0.767999 -0.767999,2.047996 -0.661332,1.301332 -1.301331,1.301332 -0.277333,0 -0.533333,-0.298666 -1.258664,-1.514665 -1.258664,-2.879996 0,-0.469332 0.277332,-1.855997 0.384,-2.175997 0.384,-2.431996 0,-0.234666 -0.064,-0.234666 -0.064,0 -0.170666,0.170666 -0.554666,1.023998 -0.895999,2.218663 -0.362666,1.258665 -0.447999,2.111997 -0.149333,1.279998 -0.234667,2.389329 0,0.533333 -0.277333,0.533333 -0.127999,0 -0.426666,-0.234666 -1.151998,-0.981332 -1.151998,-2.687996 0,-0.810666 0.149333,-2.00533 0.08533,-0.938666 0.149333,-1.770664 0.213333,-2.965329 0.576,-2.965329 0.191999,0 0.277332,0.405333 0.08533,0.362666 0.08533,0.938665 0,0.405333 0.04267,0.959999 0.04267,0.426665 0.149333,0.426665 0.128,0 0.362666,-0.682665 0.234667,-0.682666 0.703999,-1.386665 0.448,-0.682665 0.981332,-0.682665 0.511999,0 0.938665,0.234666 0.917332,0.469333 0.917332,1.962664 0,0.511999 -0.128,1.258664 -0.08533,0.533333 -0.213333,1.621331 l -0.106666,1.002665 q 0,0.128 0.08533,0.128 0.170666,0 0.874665,-0.853332 0.661333,-0.853332 0.938666,-0.853332 0.191999,0 0.191999,0.298666 0,0.959999 -0.106666,1.813331 z m 5.610653,-4.415993 q 0,-0.234667 -0.170666,-0.234667 -0.02133,0 -0.149333,0.04267 -1.258665,0.618666 -2.218664,1.642664 -0.938665,1.002665 -1.429331,2.282663 -0.08533,0.234666 -0.08533,0.447999 0,0.426666 0.32,0.426666 0.149333,0 0.383999,-0.127999 1.002665,-0.682666 1.855997,-1.749331 0.895999,-1.109332 1.386665,-2.239996 0.106666,-0.277333 0.106666,-0.490666 z m -2.602662,10.389317 q 0,-0.170667 0.127999,-0.234667 0.08533,-0.02133 0.213333,-0.106666 0.02133,0 0.213333,-0.149333 0.277333,-0.213333 0.512,-0.213333 0.191999,0 0.341332,0.064 0.128,0.064 0.170667,0.064 0.234666,0 0.234666,-0.874666 0.08533,-1.68533 0.405333,-4.885325 -0.554666,0.895998 -1.621331,2.06933 -0.981332,1.109331 -1.599998,1.109331 -0.597332,0 -0.981331,-0.533332 -0.703999,-0.981332 -0.703999,-2.303997 0,-1.898663 2.026663,-4.181326 0.469333,-0.511999 1.066665,-1.109332 0.362666,-0.319999 1.087999,-1.023998 0.746665,-0.682666 1.343997,-0.682666 0.597333,0 0.917332,0.426666 0.32,0.426666 0.32,0.959999 0,0.575999 -0.256,1.493331 0.170667,0.106666 0.170667,0.298666 0,0.128 -0.04267,0.426666 -0.981332,6.122657 -1.066665,7.893321 -0.128,1.898663 -0.128,2.965328 l 0.02133,1.130665 q 0,0.298666 -0.149333,0.447999 -0.149333,0.192 -0.383999,0.192 -0.213333,0 -0.767999,-0.426666 -0.533332,-0.405333 -1.045331,-0.405333 l -0.490666,0.04267 q -0.256,0 -0.256,-0.234666 l 0.277333,-1.983997 z"
       id="text1"
       transform="matrix(0.26458333,0,0,0.26458333,-0.28768645,-0.82390777)"
       aria-label="创/Chuang" /></g></svg>
